<?xml version="1.0" encoding="UTF-8"?>
<svg width="375px" height="96px" viewBox="0 0 375 96" version="1.1" xmlns="http://www.w3.org/2000/svg" xmlns:xlink="http://www.w3.org/1999/xlink">
    <!-- Generator: Sketch 59.1 (86144) - https://sketch.com -->
    <title>积分商城</title>
    <desc>Created with Sketch.</desc>
    <defs>
        <rect id="path-1" x="0" y="0" width="375" height="96"></rect>
    </defs>
    <g id="iOS-最新版本" stroke="none" stroke-width="1" fill="none" fill-rule="evenodd">
        <g id="积分商城">
            <mask id="mask-2" fill="white">
                <use xlink:href="#path-1"></use>
            </mask>
            <g id="蒙版" fill-rule="nonzero"></g>
            <g id="编组" opacity="0.1" mask="url(#mask-2)" fill="#FFFFFF" fill-rule="nonzero">
                <g transform="translate(128.000000, 33.500000) rotate(-90.000000) translate(-128.000000, -33.500000) translate(29.000000, -134.000000)" id="路径">
                    <path d="M70.5,0.5 C70.5,0.5 70.5,18.4057426 70.5,31.1295583 C70.5,38.821286 74.5873044,45.9136582 81.2037696,49.7720086 C101.753201,61.6841972 144.70377,86.594906 144.70377,86.594906 L70.5,129.636116 C70.5,129.636116 70.5,129.636116 70.5,129.648602 C70.5,138.526554 75.2195946,146.717745 82.8748222,151.175451 C90.5300498,155.608183 99.969239,155.608183 107.624467,151.175451 C131.967639,137.040652 163.514403,118.747826 186.79623,105.249843 C193.435277,101.403979 197.5,94.2991203 197.5,86.6073926 C197.5,78.915665 193.412696,71.8108062 186.79623,67.9649423 C143.123044,42.6296901 70.5,0.5 70.5,0.5 Z"></path>
                    <path d="M197.5,51.5 C197.5,51.5 197.5,72.9474072 197.5,88.1729724 C197.5,97.3860846 192.593298,105.896248 184.650406,110.502804 C151.170978,129.871279 63.8804871,180.393832 63.8804871,180.393832 L197.5,257.733123 L197.5,257.733123 C197.5,268.367088 191.86136,278.193411 182.67146,283.517872 C173.48156,288.827376 162.150062,288.827376 152.960162,283.517872 C112.107128,259.871881 52.2236824,225.218016 13.3495941,202.723664 C5.40670153,198.117108 0.5,189.606944 0.5,180.393832 C0.5,171.18072 5.40670153,162.685513 13.3495941,158.078957 C77.1096051,121.181639 197.5,51.5 197.5,51.5 Z" transform="translate(99.000000, 169.500000) rotate(-180.000000) translate(-99.000000, -169.500000) "></path>
                    <path d="M167.960914,203.491011 C173.746215,200.169663 180.879714,200.169663 186.665015,203.491011 C192.450317,206.821714 196,212.968546 196,219.620597 L196,219.620597 L111.882742,268 L196,316.379403 L196,316.379403 C196,323.031454 192.450317,329.178286 186.665015,332.508989 C180.879714,335.830337 173.746215,335.830337 167.960914,332.508989 C142.242775,317.717298 104.544454,296.039658 80.0891825,281.968371 C75.0889072,279.086752 72,273.76324 72,268 C72,262.23676 75.0889072,256.922604 80.0891825,254.040984 C104.544454,239.969698 142.242775,218.292058 167.960914,203.491011 Z"></path>
                </g>
            </g>
            <path d="M301.975,60.80675 L301.975,52.16 C301.975,50.96525 301.00975,50 299.815,50 L254.185,50 C252.99025,50 252.025,50.96525 252.025,52.16 L252.025,60.80675 C250.89775,60.87425 250,61.8125 250,62.96 L250,71.84975 C250,73.49675 250.324,75.0965 250.972,76.60175 C251.26225,77.29025 251.62,77.93825 252.025,78.5525 L252.025,101.84 C252.025,103.028 252.99025,104 254.185,104 L299.815,104 C301.00975,104 301.975,103.03475 301.975,101.84 L301.975,78.5525 C302.38675,77.93825 302.73775,77.2835 303.028,76.60175 C303.66925,75.0965 304,73.49675 304,71.84975 L304,62.96 C304,61.8125 303.10225,60.87425 301.975,60.80675 Z M257,56 L297,56 L297,61 L257,61 L257,56 Z M281,100 L273,100 L273,92 L281,92 L281,100 Z M296.973172,98 L285.571429,98 L285.571429,89.1139702 C285.571429,87.9583293 284.612341,87.0246759 283.425218,87.0246759 L270.547954,87.0246759 C269.360832,87.0246759 268.401744,87.9583293 268.401744,89.1139702 L268.401744,98 L257,98 L257,82.1866539 C257.1945,82.2780605 257.395708,82.3694671 257.603622,82.4478157 C259.099262,83.0615458 260.688799,83.3684109 262.325285,83.3684109 C263.961771,83.3684109 265.544601,83.0615458 267.046948,82.4478157 C267.972502,82.0691311 268.8444,81.5859818 269.642522,81.0048968 C269.655936,80.9983677 269.669349,80.9983677 269.682763,81.0048968 C270.480885,81.5859818 271.346076,82.0691311 272.278337,82.4478157 C273.773977,83.0615458 275.363514,83.3684109 277,83.3684109 C278.636486,83.3684109 280.219316,83.0615458 281.721663,82.4478157 C282.647217,82.0691311 283.519115,81.5859818 284.317237,81.0048968 C284.330651,80.9983677 284.344064,80.9983677 284.357478,81.0048968 C285.1556,81.5859818 286.020791,82.0691311 286.953052,82.4478157 C288.448692,83.0615458 290.038229,83.3684109 291.674715,83.3684109 C293.311201,83.3684109 294.894031,83.0615458 296.396378,82.4478157 C296.597586,82.3629381 296.798793,82.2780605 297,82.1866539 L297,98 L296.973172,98 Z M300,71.419 C300,75.605 296.63872,79 292.502287,79 C289.703506,79 287.261433,77.453 285.971799,75.157 C285.772866,74.807 285.416159,74.59 285.018293,74.59 L284.977134,74.59 C284.586128,74.59 284.222561,74.807 284.023628,75.157 C282.740854,77.453 280.29878,79 277.5,79 C274.708079,79 272.272866,77.46 270.983232,75.171 C270.777439,74.814 270.407012,74.59 270.002287,74.59 C269.597561,74.59 269.220274,74.814 269.021341,75.171 C267.724848,77.46 265.289634,79 262.497713,79 C258.36128,79 255,75.605 255,71.419 L255,65.035 C255,65.014 255.01372,65 255.034299,65 L299.965701,65 C299.98628,65 300,65.014 300,65.035 L300,71.419 L300,71.419 Z" id="形状" fill="#FFFFFF" fill-rule="nonzero" opacity="0.100000001" mask="url(#mask-2)"></path>
            <path d="M352.052547,6.91002073 L334.797839,26.4975371 L365.49594,59.6048291 L396.210447,26.4740985 L379.130505,6.91002073 L352.052547,6.91002073 Z M351.311398,2.00000093 L379.87308,2.00000093 C380.780434,2.00000093 381.642848,2.39135444 382.237051,3.0724926 L401.232281,24.8355316 C402.279448,26.0351586 402.252341,27.8271415 401.169508,28.9955172 L367.798565,64.9956932 C367.205736,65.6357785 366.371127,66.0000009 365.496653,66.0000009 C364.622112,66.0000009 363.787518,65.6363466 363.194741,64.9956932 L329.829505,29.0047505 C328.744532,27.8328236 328.720992,26.0344484 329.776005,24.8355316 L348.955987,3.05970794 C349.551402,2.38545801 350.409694,1.99931008 351.311398,2.00000093 Z M365.496653,40.1131977 L376.224403,28.2461942 L380.467996,32.0503401 L365.496653,48.6114439 L350.52531,32.0496299 L354.768903,28.2454839 L365.496653,40.1131977 Z" id="形状" fill="#FFFFFF" fill-rule="nonzero" opacity="0.1" mask="url(#mask-2)"></path>
        </g>
    </g>
</svg>