<?xml version="1.0" encoding="UTF-8"?>
<svg width="360px" height="96px" viewBox="0 0 360 96" version="1.1" xmlns="http://www.w3.org/2000/svg" xmlns:xlink="http://www.w3.org/1999/xlink">
    <!-- Generator: Sketch 59.1 (86144) - https://sketch.com -->
    <title>积分明细</title>
    <desc>Created with Sketch.</desc>
    <defs>
        <rect id="path-1" x="0" y="0" width="375" height="96"></rect>
    </defs>
    <g id="iOS-最新版本" stroke="none" stroke-width="1" fill="none" fill-rule="evenodd">
        <g id="积分明细">
            <mask id="mask-2" fill="white">
                <use xlink:href="#path-1"></use>
            </mask>
            <g id="蒙版" fill-rule="nonzero"></g>
            <g id="编组" opacity="0.100000001" mask="url(#mask-2)" fill="#FFFFFF" fill-rule="nonzero">
                <g transform="translate(128.000000, 33.500000) rotate(-90.000000) translate(-128.000000, -33.500000) translate(29.000000, -134.000000)" id="路径">
                    <path d="M70.5,0.5 C70.5,0.5 70.5,18.4057426 70.5,31.1295583 C70.5,38.821286 74.5873044,45.9136582 81.2037696,49.7720086 C101.753201,61.6841972 144.70377,86.594906 144.70377,86.594906 L70.5,129.636116 C70.5,129.636116 70.5,129.636116 70.5,129.648602 C70.5,138.526554 75.2195946,146.717745 82.8748222,151.175451 C90.5300498,155.608183 99.969239,155.608183 107.624467,151.175451 C131.967639,137.040652 163.514403,118.747826 186.79623,105.249843 C193.435277,101.403979 197.5,94.2991203 197.5,86.6073926 C197.5,78.915665 193.412696,71.8108062 186.79623,67.9649423 C143.123044,42.6296901 70.5,0.5 70.5,0.5 Z"></path>
                    <path d="M197.5,51.5 C197.5,51.5 197.5,72.9474072 197.5,88.1729724 C197.5,97.3860846 192.593298,105.896248 184.650406,110.502804 C151.170978,129.871279 63.8804871,180.393832 63.8804871,180.393832 L197.5,257.733123 L197.5,257.733123 C197.5,268.367088 191.86136,278.193411 182.67146,283.517872 C173.48156,288.827376 162.150062,288.827376 152.960162,283.517872 C112.107128,259.871881 52.2236824,225.218016 13.3495941,202.723664 C5.40670153,198.117108 0.5,189.606944 0.5,180.393832 C0.5,171.18072 5.40670153,162.685513 13.3495941,158.078957 C77.1096051,121.181639 197.5,51.5 197.5,51.5 Z" transform="translate(99.000000, 169.500000) rotate(-180.000000) translate(-99.000000, -169.500000) "></path>
                    <path d="M167.960914,203.491011 C173.746215,200.169663 180.879714,200.169663 186.665015,203.491011 C192.450317,206.821714 196,212.968546 196,219.620597 L196,219.620597 L111.882742,268 L196,316.379403 L196,316.379403 C196,323.031454 192.450317,329.178286 186.665015,332.508989 C180.879714,335.830337 173.746215,335.830337 167.960914,332.508989 C142.242775,317.717298 104.544454,296.039658 80.0891825,281.968371 C75.0889072,279.086752 72,273.76324 72,268 C72,262.23676 75.0889072,256.922604 80.0891825,254.040984 C104.544454,239.969698 142.242775,218.292058 167.960914,203.491011 Z"></path>
                </g>
            </g>
            <g id="3.通用组件/彩色版/金币" opacity="0.300000012" mask="url(#mask-2)">
                <g transform="translate(255.000000, 32.000000)" id="资源-6">
                    <g transform="translate(0.492188, 0.375000)">
                        <circle id="椭圆形" fill="#FFFFFF" fill-rule="nonzero" opacity="0.400000006" cx="52.1842443" cy="52.1842443" r="52.0752698"></circle>
                        <circle id="椭圆形" fill="#FFFFFF" fill-rule="nonzero" opacity="0.5" cx="51.8791157" cy="51.8791157" r="41.3699401"></circle>
                        <g id="编组" transform="translate(37.138098, 26.262849)" fill="#FFFFFF" fill-rule="nonzero">
                            <path d="M6.98786165,6.63757682e-09 C7.33556601,6.63757682e-09 7.65387697,0.194905578 7.81164782,0.504522804 L15.1043784,14.794 L22.3968848,0.504522804 C22.5371255,0.229307492 22.8042128,0.0447285492 23.1060381,0.00710872614 L23.220671,6.63757682e-09 L28.5354205,6.63757682e-09 C28.8569879,6.63757682e-09 29.1554647,0.166928943 29.3235368,0.440871933 C29.4916089,0.714814923 29.5051179,1.05635696 29.3592066,1.34270026 L29.3592066,1.34270026 L22.4833784,14.82 L28.6254359,14.8205288 C29.2467563,14.8205288 29.7504359,15.3242085 29.7504359,15.9455288 L29.7504359,21.1348531 C29.7504359,21.7561734 29.2467563,22.2598531 28.6254359,22.2598531 L18.6493784,22.259 L18.6493784,29.582 L28.6254359,29.5829379 C29.2467563,29.5829379 29.7504359,30.0866175 29.7504359,30.7079379 L29.7504359,35.8972621 C29.7504359,36.5185825 29.2467563,37.0222621 28.6254359,37.0222621 L18.6493784,37.022 L18.6495693,50.9186874 C18.6495693,51.4290557 18.2332319,51.8427909 17.7196537,51.8427909 L12.1401605,51.8427909 C11.6265824,51.8427909 11.210245,51.4290557 11.210245,50.9186874 L11.2093784,37.022 L1.23437835,37.0222621 C0.61305801,37.0222621 0.109378353,36.5185825 0.109378353,35.8972621 L0.109378353,30.7079379 C0.109378353,30.0866175 0.61305801,29.5829379 1.23437835,29.5829379 L11.2093784,29.582 L11.2093784,22.259 L1.23437835,22.2598531 C0.61305801,22.2598531 0.109378353,21.7561734 0.109378353,21.1348531 L0.109378353,15.9455288 C0.109378353,15.3242085 0.61305801,14.8205288 1.23437835,14.8205288 L7.72337835,14.82 L0.849325965,1.34270026 C0.703414745,1.05635696 0.71692368,0.714814923 0.884995779,0.440871933 C1.05306788,0.166928943 1.35154472,6.63757682e-09 1.67311214,6.63757682e-09 L6.98786165,6.63757682e-09 Z" id="形状结合"></path>
                        </g>
                    </g>
                </g>
            </g>
        </g>
    </g>
</svg>