<?xml version="1.0" encoding="UTF-8"?>
<svg width="32px" height="31px" viewBox="0 0 32 31" version="1.1" xmlns="http://www.w3.org/2000/svg" xmlns:xlink="http://www.w3.org/1999/xlink">
    <!-- Generator: Sketch 59.1 (86144) - https://sketch.com -->
    <title>coupon_center</title>
    <desc>Created with Sketch.</desc>
    <g id="iOS" stroke="none" stroke-width="1" fill="none" fill-rule="evenodd">
        <g id="（登录前）首页" transform="translate(-262.000000, -302.000000)">
            <g id="组件/菜单/按钮菜单" transform="translate(5.000000, 288.000000)">
                <g id="图标" transform="translate(239.000000, 13.000000)">
                    <g id="icon/积分商城" transform="translate(18.000000, 1.000000)">
                        <g id="coupon_center" transform="translate(0.000000, 0.000000)">
                            <path d="M29.0633622,5.27134929 C30.0601736,5.59658473 30.7277057,6.50632225 30.7171783,7.5252311 L30.7171783,12.299704 C30.1429862,12.2963541 29.5761751,12.4250993 29.0633622,12.675351 L29.0633622,5.27134929 Z M29.0633622,19.3543541 C29.5750368,19.6090936 30.1418901,19.7423548 30.7171783,19.7431487 L30.7171783,24.5194999 C30.7258781,25.5378525 30.0590306,26.4466569 29.0633622,26.7733817 L29.0633622,19.3543541 Z" id="风格颜色2" fill="#07C160"></path>
                            <path d="M13.1785849,9.37717065 L15.939469,13.426645 C15.9673079,13.4659667 16.0133646,13.4894687 16.0625842,13.4894687 C16.1118038,13.4894687 16.1578606,13.4659667 16.1856995,13.426645 L18.9465835,9.37717065 C18.9732538,9.33695193 19.0193872,9.31283257 19.0687294,9.31329279 L21.461237,9.31329279 C21.5157014,9.3137715 21.5654614,9.34330028 21.590628,9.3900944 C21.6157946,9.43688853 21.6122627,9.49331512 21.5814441,9.53682061 L18.1807484,14.2624594 C18.1497352,14.3062429 18.1463722,14.3630846 18.1720186,14.410014 C18.1976651,14.4569433 18.2480816,14.4862033 18.3028943,14.4859694 L20.3522303,14.4859694 C20.4336097,14.4859694 20.4995808,14.5498789 20.4995808,14.6287152 L20.4995808,16.4412119 C20.4995878,16.5193205 20.4347904,16.5829299 20.3541691,16.5839577 L17.4284851,16.6008618 C17.3471056,16.6008618 17.2811345,16.6647713 17.2811345,16.7436077 L17.2811345,17.7728804 C17.2811345,17.8517167 17.3471056,17.9156262 17.4284851,17.9156262 L20.3522303,17.9156262 C20.3913101,17.9156262 20.4287892,17.9306655 20.4564228,17.9574355 C20.4840564,17.9842055 20.4995808,18.0205135 20.4995808,18.0583721 L20.4995808,19.8840163 C20.4985199,19.9621182 20.4328585,20.0248907 20.3522303,20.0248839 L17.4304239,20.0248839 C17.3913441,20.0248839 17.3538649,20.0399232 17.3262313,20.0666932 C17.2985977,20.0934633 17.2830734,20.1297712 17.2830734,20.1676298 L17.2830734,22.5811615 C17.2830734,22.6190201 17.267549,22.6553281 17.2399154,22.6820981 C17.2122818,22.7088681 17.1748026,22.7239074 17.1357228,22.7239074 L14.9875068,22.7239074 C14.948427,22.7239074 14.9109479,22.7088681 14.8833143,22.6820981 C14.8556807,22.6553281 14.8401563,22.6190201 14.8401563,22.5811615 L14.8401563,20.1676298 C14.8401563,20.1297712 14.8246319,20.0934633 14.7969983,20.0666932 C14.7693647,20.0399232 14.7318856,20.0248839 14.6928058,20.0248839 L11.7845712,20.0248839 C11.7039429,20.0248907 11.6382815,19.9621182 11.6372206,19.8840163 L11.6372206,18.0583721 C11.6372206,18.0205135 11.652745,17.9842055 11.6803786,17.9574355 C11.7080122,17.9306655 11.7454914,17.9156262 11.7845712,17.9156262 L14.6928058,17.9156262 C14.7741852,17.9156262 14.8401563,17.8517167 14.8401563,17.7728804 L14.8401563,16.7436077 C14.840675,16.7059229 14.8255842,16.6696082 14.7982578,16.6427828 C14.7709314,16.6159574 14.7336484,16.6008585 14.6947446,16.6008618 L11.78651,16.5839577 C11.7063252,16.5819456 11.6421131,16.5189107 11.6410983,16.4412119 L11.6410983,14.6287152 C11.6410983,14.5498789 11.7070693,14.4859694 11.7884488,14.4859694 L13.8222742,14.4859694 C13.8767386,14.4855086 13.9264985,14.4559798 13.9516651,14.4091856 C13.9768317,14.3623915 13.9732999,14.3059649 13.9424812,14.2624594 L10.5417856,9.53682061 C10.5113142,9.49386825 10.5074291,9.43824202 10.5316502,9.39170476 C10.5558712,9.3451675 10.6043481,9.31511724 10.658115,9.31329279 L13.0545003,9.31329279 C13.1044378,9.31254135 13.1512886,9.33665305 13.1785849,9.37717065 L13.1785849,9.37717065 Z" id="风格颜色1" fill="#07C160"></path>
                            <path d="M24.5226386,26.3168065 C24.8407546,26.3168065 25.0986385,26.5666315 25.0986385,26.8748064 C25.0986385,27.1829812 24.8407546,27.4328063 24.5226386,27.4328063 L22.7059614,27.4328063 C22.3878455,27.4328063 22.1299615,27.1829812 22.1299615,26.8748064 C22.1299615,26.5666315 22.3878455,26.3168065 22.7059614,26.3168065 L24.5226386,26.3168065 Z M5.97004081,4.60441176 C6.28815678,4.60441176 6.54604072,4.85423684 6.54604072,5.16241168 C6.54604072,5.47058652 6.28815678,5.72041159 5.97004081,5.72041159 L3.71667676,5.72038138 C2.71225545,5.73809399 1.91207502,6.53992016 1.92776422,7.51583991 L1.92776422,11.7765337 C4.07296803,12.1041857 5.66768395,13.8978432 5.66768395,16.0176699 C5.66768395,18.1374968 4.07296762,19.9311546 1.92776339,20.2588062 L1.92774132,24.5223442 C1.91206601,25.495805 2.7120539,26.2981996 3.71325079,26.3168065 L20.9455101,26.3168065 C21.2636261,26.3168065 21.52151,26.5666315 21.52151,26.8748064 C21.52151,27.1829812 21.2636261,27.4328063 20.9455101,27.4328063 L3.71064463,27.4328063 C2.07013886,27.4107833 0.757375341,26.1068156 0.775397977,24.5194999 L0.775397977,19.1851488 L1.35176431,19.1851488 C3.0922831,19.1851488 4.51187643,17.7653959 4.51187643,16.018609 C4.51187643,14.2729858 3.09345888,12.857704 1.35176431,12.857704 L0.775397977,12.857704 L0.775397977,7.51786481 C0.757380931,5.92878913 2.07052661,4.62533893 3.71325079,4.60441176 L5.97004081,4.60441176 Z M28.3014048,4.60441176 L28.4723545,4.61112489 C30.0331077,4.71556927 31.2566469,5.98351505 31.2392573,7.51583991 L31.2392573,12.857704 L30.6628913,12.857704 C28.9207165,12.857704 27.5008403,14.2771724 27.5008403,16.0242437 C27.5008403,17.7713151 28.9207165,19.1907835 30.6628913,19.1907835 L31.2392573,19.1907835 L31.2392573,24.5234898 C31.2538394,26.1104936 29.9420731,27.4107824 28.3014048,27.4328063 L26.3470711,27.4328063 C26.0289552,27.4328063 25.7710712,27.1829812 25.7710712,26.8748064 C25.7710712,26.5666315 26.0289552,26.3168065 26.3470711,26.3168065 L28.2978008,26.3168399 C29.3026017,26.2981996 30.1025896,25.495805 30.0868913,24.5194999 L30.0868913,20.2588061 C27.9416875,19.9311541 26.3469716,18.1374966 26.3469716,16.0176699 C26.3469716,13.897843 27.9416879,12.1041852 30.0868922,11.7765336 L30.0869142,7.51299616 C30.1025805,6.53992016 29.3024001,5.73809399 28.3014048,5.72041159 L8.37805906,5.72041159 C8.05994309,5.72041159 7.80205915,5.47058652 7.80205915,5.16241168 C7.80205915,4.85423684 8.05994309,4.60441176 8.37805906,4.60441176 L28.3014048,4.60441176 Z M13.0545003,8.9376342 C13.2342103,8.9376342 13.4021704,9.0241639 13.5023684,9.16868658 L16.0616148,12.9251562 L18.6228001,9.16868658 C18.7218947,9.02394613 18.8894456,8.93714292 19.0687294,8.9376342 L21.461237,8.9376342 C21.6611892,8.93559906 21.8455239,9.04209269 21.9386899,9.21349712 C22.0318558,9.38490154 22.0181882,9.59239697 21.9032887,9.75093938 L18.7643342,14.1103224 L20.3522303,14.1103224 C20.6477662,14.1103224 20.8873454,14.3424148 20.8873454,14.6287152 L20.8873454,16.4412119 C20.886282,16.7270845 20.6473246,16.9585745 20.3522303,16.9596047 L17.6650215,16.9746306 L17.6650215,17.538101 L20.3522303,17.538101 C20.6477662,17.538101 20.8873454,17.7701934 20.8873454,18.0564938 L20.8873454,19.8821381 C20.887863,20.0197775 20.8316512,20.1519243 20.7311852,20.2492507 C20.6307192,20.3465771 20.4943097,20.4010323 20.3522303,20.4005309 L17.670838,20.4005309 L17.670838,22.5811615 C17.670838,22.7186479 17.6144599,22.8505031 17.5141064,22.9477206 C17.4137528,23.0449381 17.2776442,23.0995544 17.1357228,23.0995544 L14.9875068,23.0995544 C14.6924125,23.0985242 14.4534551,22.8670342 14.4523917,22.5811615 L14.4523917,20.4005309 L11.7884488,20.4005309 C11.4936684,20.4005328 11.2544017,20.169583 11.2533336,19.8840163 L11.2533336,18.0583721 C11.2543971,17.7724994 11.4933545,17.5410094 11.7884488,17.5399792 L14.4523917,17.5399792 L14.4523917,16.9765088 L11.7845712,16.9614829 C11.4909922,16.9584043 11.2543764,16.7275096 11.2533336,16.4430901 L11.2533336,14.6287152 C11.2543971,14.3428426 11.4933545,14.1113526 11.7884488,14.1103224 L13.3608343,14.1103224 L10.2238186,9.75093938 C10.1112006,9.59322496 10.0976606,9.38816515 10.188618,9.21783573 C10.2795754,9.0475063 10.4601687,8.93973734 10.658115,8.9376342 L13.0545003,8.9376342 Z M12.9265379,9.68895763 L11.1234325,9.68895763 L14.2604482,14.0464624 C14.3745458,14.2047754 14.3883659,14.4113995 14.2963113,14.5826526 C14.2042567,14.7539057 14.0215836,14.8614061 13.8222742,14.8616164 L12.0288629,14.8616164 L12.0288629,16.2083107 L14.6966834,16.2252149 C14.8380908,16.2257121 14.9735026,16.2806079 15.0731292,16.3778256 C15.1727557,16.4750433 15.2284361,16.6066192 15.2279209,16.7436077 L15.2279209,17.7728804 C15.2268575,18.058753 14.9879001,18.290243 14.6928058,18.2912732 L12.0288629,18.2912732 L12.0288629,19.649237 L14.6928058,19.649237 C14.9879001,19.6502671 15.2268575,19.8817571 15.2279209,20.1676298 L15.2279209,22.3482604 L16.8953087,22.3482604 L16.8953087,20.1676298 C16.8963721,19.8817571 17.1353296,19.6502671 17.4304239,19.649237 L20.113755,19.649237 L20.113755,18.2912732 L17.4304239,18.2912732 C17.1353296,18.290243 16.8963722,18.058753 16.8953087,17.7728804 L16.8953087,16.7436077 C16.8953068,16.4580391 17.1337066,16.2262495 17.4284851,16.2252149 L20.113755,16.2083107 L20.113755,14.8616164 L18.3028943,14.8616164 C18.1043046,14.8606103 17.922749,14.752765 17.8317603,14.5817594 C17.7385605,14.4109352 17.7528157,14.2037899 17.8685979,14.0464624 L21.0036748,9.68895763 L19.1986305,9.68895763 L16.5075441,13.6332508 C16.409011,13.7788871 16.2413623,13.8666249 16.0616148,13.8666249 C15.8818673,13.8666249 15.7142186,13.7788871 15.6156855,13.6332508 L12.9265379,9.68895763 Z" id="骨架" fill-opacity="0.9" fill="#000000"></path>
                        </g>
                    </g>
                </g>
            </g>
        </g>
    </g>
</svg>