<?xml version="1.0" encoding="UTF-8"?>
<svg width="32px" height="31px" viewBox="0 0 32 31" version="1.1" xmlns="http://www.w3.org/2000/svg" xmlns:xlink="http://www.w3.org/1999/xlink">
    <!-- Generator: Sketch 59.1 (86144) - https://sketch.com -->
    <title>info</title>
    <desc>Created with Sketch.</desc>
    <g id="iOS" stroke="none" stroke-width="1" fill="none" fill-rule="evenodd">
        <g id="（登录前）首页" transform="translate(-50.000000, -392.000000)">
            <g id="组件/菜单/按钮菜单" transform="translate(5.000000, 378.000000)">
                <g id="图标" transform="translate(27.000000, 13.000000)">
                    <g id="icon/积分商城" transform="translate(18.000000, 1.000000)">
                        <g id="info">
                            <path d="M16.2144687,1.7921875 C17.510817,1.7921875 18.7691586,2.03835459 19.9537781,2.52375116 C21.0976566,2.99246636 22.1250191,3.66346142 23.0069704,4.51782092 C23.8888999,5.37215937 24.5815525,6.36744267 25.0653685,7.47560409 C25.5664483,8.62322007 25.8205625,9.84223784 25.8205625,11.0980908 C25.8205625,12.8802094 25.2987393,14.6123894 24.3115371,16.1070434 C23.6491198,17.1099681 22.7978698,17.9781661 21.8038147,18.6676665 C23.8649163,19.325724 25.775497,20.3165544 27.3042374,21.5255881 C29.1560023,22.9901474 30.2236562,24.6023093 30.2236562,25.9632266 C30.2236562,26.4047569 29.9727921,26.7659375 29.545984,27.0574489 C29.2680982,27.2472459 29.0039583,27.3636599 28.6174144,27.5011151 C27.8585476,27.7710111 26.7836105,28.0027817 25.4202318,28.191346 C22.939831,28.5344075 19.6099256,28.7231348 16.0420312,28.7231348 C12.4743343,28.7231348 9.14436908,28.5343962 6.66383052,28.1913459 C5.30048353,28.0027817 4.22554699,27.7710112 3.46665529,27.5011177 C3.08014877,27.3636757 2.81596611,27.2472389 2.53807755,27.0574369 C2.11127056,26.7659213 1.86040625,26.4047438 1.86040625,25.9632266 C1.86040625,24.5809307 2.95592366,22.9470652 4.85596021,21.4658787 C6.43524107,20.2347238 8.40337167,19.2383245 10.5198218,18.5929231 L10.2023978,18.3563104 C9.37020144,17.7088832 8.6534176,16.9310627 8.0825787,16.0536643 C7.11812594,14.5715998 6.60834375,12.8579249 6.60834375,11.0981211 C6.60834375,9.84224911 6.86245346,8.62326064 7.36353749,7.47563487 C7.84738591,6.36747196 8.54003736,5.37219039 9.42193207,4.51785489 C10.3038298,3.66348569 11.331219,2.99247843 12.4751276,2.52378165 C13.6597635,2.03836064 14.9181044,1.7921875 16.2144687,1.7921875 Z M16.2144687,3.11065625 C11.6682286,3.11065625 7.96934375,6.69396014 7.96934375,11.0981211 C7.96934375,14.0459907 9.60754449,16.7070116 12.2654257,18.1111972 L12.5258025,18.24313 L13.866979,18.8942969 L13.4573439,18.9837044 C11.750468,19.3562496 10.0852953,19.9663989 8.57667369,20.7532546 C7.52129062,21.2485104 6.55169378,21.8362771 5.70919596,22.4930598 C4.17903472,23.6859213 3.22953095,25.0187885 3.20120283,25.8771779 C3.24137037,25.9442258 3.42216661,26.0698668 3.83239618,26.2254838 C4.51250569,26.4834774 5.59693815,26.724976 7.16971322,26.9279511 C9.55068766,27.235216 12.7022382,27.4046055 16.0420625,27.4046055 C19.3820943,27.4046055 22.5335849,27.2352271 24.9144111,26.9279512 L25.4764172,26.8511347 C27.5371579,26.5527165 28.5319165,26.2120311 28.8264249,25.9398762 L28.8608979,25.9047755 L28.8601884,25.8854391 L28.9278143,25.7943145 L28.9171937,25.6518895 C28.6607094,23.356188 24.272357,20.2215172 19.2746089,19.0492611 L18.5348507,18.8861905 L19.8024142,18.2916573 C22.6311861,16.9648467 24.4595625,14.1406861 24.4595625,11.0981211 C24.4595625,6.69393447 20.7607137,3.11065625 16.2144687,3.11065625 Z" id="骨架" fill-opacity="0.9" fill="#000000"></path>
                            <ellipse id="风格颜色" fill="#07C160" cx="16.25" cy="10.8984375" rx="6" ry="5.8125"></ellipse>
                        </g>
                    </g>
                </g>
            </g>
        </g>
    </g>
</svg>