<?xml version="1.0" encoding="UTF-8"?>
<svg width="32px" height="31px" viewBox="0 0 32 31" version="1.1" xmlns="http://www.w3.org/2000/svg" xmlns:xlink="http://www.w3.org/1999/xlink">
    <!-- Generator: Sketch 59.1 (86144) - https://sketch.com -->
    <title>points_info</title>
    <desc>Created with Sketch.</desc>
    <g id="iOS" stroke="none" stroke-width="1" fill="none" fill-rule="evenodd">
        <g id="（登录前）首页" transform="translate(-292.000000, -392.000000)">
            <g id="组件/菜单/按钮菜单" transform="translate(5.000000, 378.000000)">
                <g id="图标" transform="translate(269.000000, 13.000000)">
                    <g id="icon/积分商城" transform="translate(18.000000, 1.000000)">
                        <g id="points_info">
                            <path d="M8.09904762,16.3192857 C8.09890176,18.1652521 9.11539745,19.8710559 10.7655964,20.7940799 C12.4157954,21.7171039 14.4489665,21.7171039 16.0991655,20.7940799 C17.7493645,19.8710559 18.7658601,18.1652521 18.7657143,16.3192857 C18.7658601,14.4733193 17.7493645,12.7675155 16.0991655,11.8444915 C14.4489665,10.9214675 12.4157954,10.9214675 10.7655964,11.8444915 C9.11539745,12.7675155 8.09890176,14.4733193 8.09904762,16.3192857 Z" id="风格颜色" fill="#07C160"></path>
                            <path d="M13.4323809,10.075 C15.1542857,10.075 16.7695238,10.7245238 17.9885714,11.9054762 C18.1409524,12.0530952 18.1409524,12.2819048 17.9885714,12.4295238 C17.8361905,12.5771428 17.6,12.5771428 17.4476191,12.4295238 C16.3850229,11.3948073 14.9390024,10.8153359 13.4323809,10.8204762 C10.3009524,10.8204762 7.74857141,13.2930952 7.74857144,16.3266667 C7.74857147,19.3602381 10.3009524,21.8328572 13.4323809,21.8328571 C13.6457143,21.8328571 13.8133333,21.9952381 13.8133333,22.2019048 C13.8133334,22.4085715 13.6457143,22.5635714 13.4323809,22.5635714 C9.88190475,22.5635714 6.98666666,19.7661905 6.98666666,16.3192857 C6.98666666,12.8797619 9.87428572,10.075 13.4323809,10.075 Z M13.2952381,13.3964286 C13.5085714,13.3964286 13.6761905,13.5588095 13.6761905,13.7654762 L13.6761905,16.3192857 C13.6761905,16.5259524 13.5009524,16.6883333 13.2952381,16.6883333 L10.0419047,16.6883333 C9.82857141,16.6883333 9.66095237,16.5259524 9.66095237,16.3192857 C9.66095237,16.1126191 9.82857144,15.9502381 10.0419047,15.9502381 L12.9142857,15.9502381 L12.9142857,13.7654762 C12.9142857,13.5588095 13.0819048,13.3964286 13.2952381,13.3964286 Z" id="时钟" fill-opacity="0.9" fill="#000000"></path>
                            <path d="M23.0247619,12.6343452 C27.6702884,12.6343452 31.3390476,14.4960221 31.3390476,16.9466667 L31.3390476,25.9145238 C31.3390476,28.3589833 27.6680736,30.2194643 23.0247619,30.2194643 C18.3792354,30.2194643 14.7104762,28.3577874 14.7104762,25.9071429 L14.7104762,16.9466667 C14.7104762,14.4960222 18.3792354,12.6343452 23.0247619,12.6343452 Z M23.0247619,27.0216667 C19.894006,27.0216667 17.2288778,26.1649705 15.8715922,24.8775766 L15.8723809,25.9145238 C15.8723809,27.5992006 19.1381851,29.10125 23.0247619,29.10125 C26.8241563,29.10125 30.0215315,27.6744188 30.1716336,26.034854 L30.1771428,25.9145238 L30.1779316,24.8775766 C28.820646,26.1649704 26.1555178,27.0216667 23.0247619,27.0216667 Z M6.04190475,2.71434523 C6.36569503,2.71434523 6.62285711,2.963471 6.62285716,3.27714284 C6.6228572,3.5908147 6.36569506,3.83994048 6.04190475,3.83994048 L2.76571428,3.83994048 C2.24379028,3.83994048 1.82285713,4.24771947 1.82285716,4.75333332 L1.82195238,6.82528571 L25.0409524,6.82528571 L25.0419048,4.75333332 C25.0419048,4.24771945 24.6209716,3.83994046 24.0990476,3.83994048 L20.6476191,3.83994048 C20.3238288,3.83994048 20.0666667,3.59081469 20.0666667,3.27714287 C20.0666667,2.96347105 20.3238288,2.71434523 20.6476191,2.71434523 L24.0990476,2.71434523 C24.6572652,2.71434523 25.1926196,2.92916657 25.587339,3.31155101 C25.9820585,3.69393546 26.2038095,4.21256006 26.2038095,4.75333332 L26.2038095,11.8907143 C26.2038095,12.1989744 25.9446604,12.4535119 25.6228572,12.4535119 C25.2990669,12.4535119 25.0419048,12.2043861 25.0419048,11.8907143 L25.0409524,7.95028571 L1.82195238,7.95028571 L1.82285716,24.7630952 C1.82285716,25.2687091 2.2437903,25.6764881 2.76571428,25.6764881 L13.7295238,25.6764881 C14.0533141,25.6764881 14.3104762,25.9256139 14.3104762,26.2392857 C14.3104762,26.5529575 14.0533141,26.8020833 13.7295238,26.8020833 L2.76571428,26.8020833 C2.20749672,26.8020833 1.67214229,26.587262 1.27742286,26.2048775 C0.882703439,25.8224931 0.660952375,25.3038685 0.660952375,24.7630952 L0.660952375,4.75333332 C0.660952375,3.62723129 1.60328638,2.71434523 2.76571428,2.71434523 L6.04190475,2.71434523 Z M23.0247619,24.0102381 C19.894006,24.0102381 17.2288778,23.1535419 15.8715922,21.8661481 L15.8721395,23.6697443 C16.6512049,25.1463532 19.6115879,26.2835714 23.0247619,26.2835714 C26.4394934,26.2835714 29.4010205,25.1453151 30.1784494,23.6677227 L30.1779316,21.8661481 C28.820646,23.1535419 26.1555178,24.0102381 23.0247619,24.0102381 Z M23.0247619,21.0578571 C19.894006,21.0578571 17.2288778,20.2011609 15.8715922,18.9137671 L15.8720506,20.6581473 C16.6509798,22.1348382 19.6114581,23.2721429 23.0247619,23.2721429 C26.4396102,23.2721429 29.4012231,22.1392294 30.1785292,20.6584684 L30.1779316,18.9137671 C28.820646,20.2011609 26.1555178,21.0578571 23.0247619,21.0578571 Z M23.0247619,13.7599405 C19.2307226,13.7599405 16.0282473,15.1913152 15.8778993,16.826661 L15.8723809,16.9466667 L15.8720506,17.7131473 C16.6509798,19.1898382 19.6114581,20.3271429 23.0247619,20.3271429 C26.4396102,20.3271429 29.4012231,19.1942294 30.1785292,17.7134684 L30.1771428,16.9466667 C30.1771428,15.2619899 26.9113387,13.7599405 23.0247619,13.7599405 Z M19.1662202,15.5232496 C19.253326,15.7018293 19.1811836,15.9152227 19.0019047,16.0092857 C18.3923809,16.2897619 18.0190476,16.6292857 17.9961905,16.9319048 C17.9733333,17.2419048 18.3314286,17.522381 18.5523809,17.662619 C19.6038095,18.3416666 21.7447619,18.7107143 23.8704762,18.5852381 C24.0718809,18.586469 24.2377901,18.7387986 24.2498529,18.933563 C24.2619157,19.1283275 24.1159984,19.2987819 23.9161905,19.3233333 C23.6190476,19.3233333 23.3142857,19.3380952 23.0095238,19.3380952 C21.0209524,19.3380952 19.1695238,18.9395238 18.1257143,18.2678571 C17.3409524,17.7585714 17.2114286,17.2271428 17.2342857,16.8728571 C17.2647619,16.4595238 17.5390476,15.8542857 18.6742857,15.337619 C18.8631313,15.2631691 19.0791143,15.3446698 19.1662202,15.5232496 Z M27.9161905,15.6180952 C28.7009524,16.1273809 28.8304762,16.6588095 28.8076191,17.0130952 C28.7771429,17.4264285 28.5028572,18.0316666 27.3676191,18.5483333 C27.3142857,18.5852381 27.2533333,18.592619 27.2,18.592619 C27.0552381,18.592619 26.9180953,18.5114285 26.8571428,18.3785714 C26.7670184,18.1930796 26.8487972,17.9719147 27.04,17.8840476 C27.6495238,17.6035714 28.0228572,17.2640476 28.0457143,16.9614286 C28.0685714,16.6514286 27.7104762,16.3709524 27.4895238,16.2307143 C26.4380952,15.5516667 24.3047619,15.1826191 22.1714286,15.3080952 C21.9700238,15.3068643 21.8041147,15.1545348 21.7920519,14.9597703 C21.779989,14.7650059 21.9259064,14.5945514 22.1257143,14.57 C24.4495238,14.4297619 26.72,14.8357143 27.9161905,15.6180952 Z M8.70857144,0.97428571 C9.54666669,0.97428571 10.2323809,1.63857142 10.2323809,2.45047619 L10.2323809,3.92666668 C10.2323809,4.74194414 9.55014818,5.40285713 8.70857144,5.40285713 C7.87047619,5.40285713 7.18476191,4.73857142 7.18476191,3.92666668 L7.18476191,2.45047619 C7.18476191,1.63857142 7.87047619,0.97428571 8.70857144,0.97428571 Z M17.9809524,0.97428571 C18.8190476,0.97428571 19.5047619,1.63857142 19.5047619,2.45047619 L19.5047619,3.92666668 C19.5047619,4.73857145 18.8190476,5.40285713 17.9809524,5.40285713 C17.1428571,5.40285713 16.4571428,4.73857142 16.4571428,3.92666668 L16.4571428,2.45047619 C16.4571428,1.63857142 17.1428571,0.97428571 17.9809524,0.97428571 Z M8.70857144,1.71238097 C8.28952381,1.71238097 7.94666666,2.04452384 7.94666666,2.45047619 L7.94666666,3.92666668 C7.94666666,4.33261906 8.28952381,4.6647619 8.70857144,4.6647619 C9.12761906,4.6647619 9.47047619,4.33261903 9.47047619,3.92666668 L9.47047619,2.45047619 C9.47047619,2.04452381 9.13523809,1.71238097 8.70857144,1.71238097 Z M17.9809524,1.71238097 C17.5619048,1.71238097 17.2190476,2.04452384 17.2190476,2.45047619 L17.2190476,3.92666668 C17.2190476,4.33261906 17.5619048,4.6647619 17.9809524,4.6647619 C18.4,4.6647619 18.7428572,4.33261903 18.7428572,3.92666668 L18.7428572,2.45047619 C18.7428572,2.04452381 18.4,1.71238097 17.9809524,1.71238097 Z M15.3142857,2.71434523 C15.638076,2.71434523 15.8952381,2.96347102 15.8952381,3.27714287 C15.8952381,3.59081471 15.638076,3.83994048 15.3142857,3.83994048 L11.3752381,3.83994048 C11.0514478,3.83994048 10.7942857,3.59081469 10.7942857,3.27714287 C10.7942857,2.96347105 11.0514478,2.71434523 11.3752381,2.71434523 L15.3142857,2.71434523 Z" id="骨架" fill-opacity="0.9" fill="#000000"></path>
                        </g>
                    </g>
                </g>
            </g>
        </g>
    </g>
</svg>