<?xml version="1.0" encoding="UTF-8"?>
<svg width="32px" height="31px" viewBox="0 0 32 31" version="1.1" xmlns="http://www.w3.org/2000/svg" xmlns:xlink="http://www.w3.org/1999/xlink">
    <!-- Generator: Sketch 59.1 (86144) - https://sketch.com -->
    <title>points</title>
    <desc>Created with Sketch.</desc>
    <defs>
        <path d="M4.978125,12.8355728 C5.146875,12.8775908 5.284375,12.9709643 5.353125,13.0923499 C5.609375,13.2510848 5.8875,13.3934794 6.184375,13.5148649 L5.93125,13.9397143 L6.221875,13.5312053 C6.928125,13.8113258 7.753125,13.9560547 8.678125,13.9560547 C9.875,13.9537204 11.040625,13.6409191 11.9625,13.0783438 C12.190625,12.9382836 12.515625,12.9382836 12.74375,13.0783438 C13.659375,13.6362505 14.825,13.944383 16.025,13.951386 C17.2,13.944383 18.353125,13.6339161 19.265625,13.0760095 C19.49375,12.9359493 19.821875,12.9359493 20.05,13.0760095 C20.971875,13.6385848 22.146875,13.9490517 23.353125,13.9490517 C24.290625,13.9467173 25.13125,13.7949854 25.840625,13.5055276 C26.140625,13.384142 26.41875,13.2394131 26.675,13.0806782 C26.74375,12.9709643 26.86875,12.8869282 27.021875,12.8449101 C27.996875,12.1189312 28.5625,11.1315065 28.5625,10.0810547 L3.459375,10.0927264 C3.459375,11.1361752 4.021875,12.1165969 4.978125,12.8355728 Z" id="path-1"></path>
    </defs>
    <g id="iOS" stroke="none" stroke-width="1" fill="none" fill-rule="evenodd">
        <g id="（登录前）首页" transform="translate(-80.000000, -302.000000)">
            <g id="组件/菜单/按钮菜单" transform="translate(5.000000, 288.000000)">
                <g id="图标" transform="translate(57.000000, 13.000000)">
                    <g id="icon/积分商城" transform="translate(18.000000, 1.000000)">
                        <g id="points">
                            <path d="M5.403125,26.4922852 C5.403125,27.2430664 6.034375,27.8545898 6.809375,27.8545898 L25.2125,27.8545898 C25.9875,27.8545898 26.61875,27.2430664 26.61875,26.4922852 L5.403125,26.4922852 Z M4.978125,13.6533203 C5.146875,13.7078125 5.284375,13.8289062 5.353125,13.9863281 C5.609375,14.1921875 5.8875,14.3768555 6.184375,14.5342773 L5.93125,15.0852539 L6.221875,14.5554687 C6.928125,14.91875 7.753125,15.1064453 8.678125,15.1064453 C9.875,15.103418 11.040625,14.6977539 11.9625,13.9681641 C12.190625,13.7865234 12.515625,13.7865234 12.74375,13.9681641 C13.659375,14.6916992 14.825,15.0913086 16.025,15.1003906 C17.2,15.0913086 18.353125,14.6886719 19.265625,13.9651367 C19.49375,13.7834961 19.821875,13.7834961 20.05,13.9651367 C20.971875,14.6947266 22.146875,15.0973633 23.353125,15.0973633 C24.290625,15.0943359 25.13125,14.8975586 25.840625,14.522168 C26.140625,14.3647461 26.41875,14.1770508 26.675,13.9711914 C26.74375,13.8289062 26.86875,13.7199219 27.021875,13.6654297 C27.996875,12.7239258 28.5625,11.4433594 28.5625,10.0810547 L3.459375,10.0961914 C3.459375,11.4494141 4.021875,12.7208984 4.978125,13.6533203 Z" id="风格颜色1" fill="#07C160"></path>
                            <g id="风格颜色1">
                                <use fill="#07C160" xlink:href="#path-1"></use>
                                <use fill-opacity="0.1" fill="#000000" xlink:href="#path-1"></use>
                            </g>
                            <path d="M24.609375,1.93447266 C25.671875,1.93447266 26.628125,2.54902344 27.04375,3.49658203 C27.271875,4.01425781 27.621875,4.77412109 27.99375,5.57333984 C29.66875,9.18193359 29.803125,9.56035156 29.8000514,10.0810547 C29.8000514,11.7884766 29.08125,13.3899414 27.859375,14.5524414 L27.859375,14.5524414 L27.859375,26.4922852 C27.859375,27.9060547 26.671875,29.0564453 25.2125,29.0564453 L25.2125,29.0564453 L6.809375,29.0564453 C5.35,29.0564453 4.1625,27.9060547 4.1625,26.4922852 L4.1625,26.4922852 L4.1625,14.5675781 C2.94375,13.4111328 2.221875,11.8066406 2.21875,10.0931641 C2.21875,9.56943359 2.35625,9.18798828 4.06875,5.57636719 L4.06875,5.57636719 L4.1,5.50976562 C4.471875,4.72568359 4.821875,3.98398437 5.046875,3.47539062 C5.18125,3.17265625 5.54375,3.03339844 5.859375,3.16357422 C6.171875,3.29375 6.315625,3.64492187 6.18125,3.95068359 C5.953125,4.46533203 5.596875,5.21308594 5.221875,6.00927734 L5.221875,6.00927734 L5.190625,6.07587891 C3.784375,9.04873047 3.4625,9.79951172 3.4625,10.0871094 C3.4625,11.4433594 4.025,12.7148437 4.98125,13.6472656 C5.15,13.7017578 5.2875,13.8228516 5.35625,13.9802734 C5.6125,14.1861328 5.8875,14.3708008 6.1875,14.5282227 L6.1875,14.5282227 L5.93775,15.0704727 L6.225,14.5494141 C6.85277778,14.8750217 7.57438272,15.0571108 8.37664609,15.0935552 L8.68125,15.1003906 C9.875,15.0973633 11.04375,14.6916992 11.965625,13.9621094 C12.190625,13.7834961 12.51875,13.7834961 12.746875,13.9621094 C13.6625,14.6856445 14.828125,15.0882812 16.028125,15.0943359 C17.203125,15.0822266 18.35625,14.6826172 19.26875,13.959082 C19.496875,13.7804687 19.825,13.7774414 20.053125,13.959082 C20.978125,14.6886719 22.15,15.0913086 23.35625,15.0913086 C24.29375,15.0882812 25.13125,14.8945312 25.84375,14.5161133 C26.14375,14.3556641 26.421875,14.1709961 26.678125,13.9651367 C26.746875,13.8228516 26.871875,13.7138672 27.025,13.659375 C27.99375,12.7239258 28.559375,11.4433594 28.559375,10.0810547 C28.5625,9.79042969 28.246875,9.04570312 26.871875,6.08496094 C26.4875,5.25546875 26.134375,4.48955078 25.903125,3.96279297 C25.684375,3.46025391 25.175,3.13330078 24.609375,3.13330078 L24.609375,3.13330078 L13.390625,3.13330078 C13.05,3.13330078 12.771875,2.86386719 12.771875,2.53388672 C12.771875,2.20390625 13.05,1.93447266 13.390625,1.93447266 L13.390625,1.93447266 Z M19.665625,15.1760742 C18.60625,15.8875 17.334375,16.284082 16.034375,16.2931641 C14.7125,16.2871094 13.428125,15.8935547 12.3625,15.1791016 C11.290625,15.9026367 10.003125,16.2992187 8.684375,16.3022461 C7.553125,16.3022461 6.53125,16.0691406 5.64375,15.6120117 L5.64375,15.6120117 L5.571875,15.5726562 C5.515625,15.5423828 5.459375,15.509082 5.403125,15.4757812 L5.403125,15.4757812 L5.403125,26.4922852 C5.403125,27.2430664 6.034375,27.8545898 6.809375,27.8545898 L6.809375,27.8545898 L25.209375,27.8545898 C25.9875,27.8545898 26.61875,27.2430664 26.621875,26.4922852 L26.621875,26.4922852 L26.621875,15.4666992 C26.5625,15.5 26.50625,15.5363281 26.44375,15.5696289 C25.55,16.0449219 24.5125,16.2871094 23.3625,16.2931641 C22.034375,16.2931641 20.740625,15.8996094 19.665625,15.1760742 Z M11.53125,1.93447266 C11.875,1.93447266 12.15,2.20390625 12.15,2.53388672 C12.15,2.86386719 11.871875,3.13330078 11.53125,3.13330078 L11.53125,3.13330078 L11.11875,3.13330078 C10.778125,3.13330078 10.5,2.86386719 10.5,2.53388672 C10.5,2.20390625 10.778125,1.93447266 11.11875,1.93447266 L11.11875,1.93447266 Z" id="骨架" fill-opacity="0.9" fill="#000000"></path>
                        </g>
                    </g>
                </g>
            </g>
        </g>
    </g>
</svg>