<?xml version="1.0" encoding="UTF-8"?>
<svg width="358px" height="96px" viewBox="0 0 358 96" version="1.1" xmlns="http://www.w3.org/2000/svg" xmlns:xlink="http://www.w3.org/1999/xlink">
    <!-- Generator: Sketch 59.1 (86144) - https://sketch.com -->
    <title>选择商家</title>
    <desc>Created with Sketch.</desc>
    <defs>
        <rect id="path-1" x="0" y="0" width="375" height="96"></rect>
    </defs>
    <g id="iOS-最新版本" stroke="none" stroke-width="1" fill="none" fill-rule="evenodd">
        <g id="选择商家">
            <mask id="mask-2" fill="white">
                <use xlink:href="#path-1"></use>
            </mask>
            <g id="蒙版" fill-rule="nonzero"></g>
            <g id="编组" opacity="0.1" mask="url(#mask-2)" fill="#FFFFFF" fill-rule="nonzero">
                <g transform="translate(128.000000, 33.500000) rotate(-90.000000) translate(-128.000000, -33.500000) translate(29.000000, -134.000000)" id="路径">
                    <path d="M70.5,0.5 C70.5,0.5 70.5,18.4057426 70.5,31.1295583 C70.5,38.821286 74.5873044,45.9136582 81.2037696,49.7720086 C101.753201,61.6841972 144.70377,86.594906 144.70377,86.594906 L70.5,129.636116 C70.5,129.636116 70.5,129.636116 70.5,129.648602 C70.5,138.526554 75.2195946,146.717745 82.8748222,151.175451 C90.5300498,155.608183 99.969239,155.608183 107.624467,151.175451 C131.967639,137.040652 163.514403,118.747826 186.79623,105.249843 C193.435277,101.403979 197.5,94.2991203 197.5,86.6073926 C197.5,78.915665 193.412696,71.8108062 186.79623,67.9649423 C143.123044,42.6296901 70.5,0.5 70.5,0.5 Z"></path>
                    <path d="M197.5,51.5 C197.5,51.5 197.5,72.9474072 197.5,88.1729724 C197.5,97.3860846 192.593298,105.896248 184.650406,110.502804 C151.170978,129.871279 63.8804871,180.393832 63.8804871,180.393832 L197.5,257.733123 L197.5,257.733123 C197.5,268.367088 191.86136,278.193411 182.67146,283.517872 C173.48156,288.827376 162.150062,288.827376 152.960162,283.517872 C112.107128,259.871881 52.2236824,225.218016 13.3495941,202.723664 C5.40670153,198.117108 0.5,189.606944 0.5,180.393832 C0.5,171.18072 5.40670153,162.685513 13.3495941,158.078957 C77.1096051,121.181639 197.5,51.5 197.5,51.5 Z" transform="translate(99.000000, 169.500000) rotate(-180.000000) translate(-99.000000, -169.500000) "></path>
                    <path d="M167.960914,203.491011 C173.746215,200.169663 180.879714,200.169663 186.665015,203.491011 C192.450317,206.821714 196,212.968546 196,219.620597 L196,219.620597 L111.882742,268 L196,316.379403 L196,316.379403 C196,323.031454 192.450317,329.178286 186.665015,332.508989 C180.879714,335.830337 173.746215,335.830337 167.960914,332.508989 C142.242775,317.717298 104.544454,296.039658 80.0891825,281.968371 C75.0889072,279.086752 72,273.76324 72,268 C72,262.23676 75.0889072,256.922604 80.0891825,254.040984 C104.544454,239.969698 142.242775,218.292058 167.960914,203.491011 Z"></path>
                </g>
            </g>
            <g id="3.通用组件/彩色版/地图" opacity="0.200000003" mask="url(#mask-2)">
                <g transform="translate(261.000000, 14.000000)" id="资源-23">
                    <g transform="translate(0.621094, 0.621094)">
                        <rect id="矩形" fill="#FFFFFF" fill-rule="nonzero" opacity="0.5" x="0" y="29.5175781" width="95.8740234" height="66.3564453" rx="2.25"></rect>
                        <polygon id="路径" fill="#FFFFFF" fill-rule="nonzero" opacity="0.400000006" points="0 47.8789062 18.4775391 62.6317213 0 84.7177734"></polygon>
                        <path d="M0,33.3229888 L35.5344319,62.4052734 L64.8457031,29.4013672 L2.76380194,29.4013672 C1.23739628,29.4013672 0,30.6407341 0,32.1695707 L0,33.3229888 Z" id="路径" fill="#FFFFFF" fill-rule="nonzero" opacity="0.400000006"></path>
                        <path d="M65.8281227,83.1668678 C62.6374494,87.8941465 60.8262155,92.6214251 59.8486328,95.8740234 L92.9943279,95.8740234 C94.5205583,95.8740234 95.7578125,94.6351114 95.7578125,93.1068359 L95.7578125,66.4726562 C89.0793913,66.9338542 83.1275364,68.6552754 78.0185442,71.616166 C73.2262013,74.3902715 69.1247295,78.2781699 65.8281227,83.1668678 Z" id="路径" fill="#FFFFFF" fill-rule="nonzero" opacity="0.400000006"></path>
                        <path d="M74.430686,65.1703683 C68.6608475,68.50785 63.7447331,73.1446478 59.8159893,78.9553185 C55.3860714,85.5082912 53.2488808,92.0382467 52.2949219,95.7578125 L59.9438751,95.7578125 C60.9220286,92.5123993 62.7343201,87.7973433 65.9268566,83.0742312 C69.2253884,78.1946028 73.3292552,74.3139172 78.1243965,71.5403549 C83.236372,68.587259 89.1917025,66.8667297 95.8740234,66.4098399 L95.8740234,59.0351562 C87.8598468,59.508158 80.6659827,61.5670389 74.430686,65.1703683 Z" id="路径" fill="#FFFFFF" fill-rule="nonzero"></path>
                        <path d="M22.0800781,81.1152344 C13.9674784,81.1150526 7.37563425,87.6549924 7.32128906,95.7578125 L36.8388672,95.7578125 C36.784522,87.6549924 30.1926778,81.1150526 22.0800781,81.1152344 L22.0800781,81.1152344 Z" id="路径" fill="#597EF7" fill-rule="nonzero"></path>
                        <path d="M79.1396484,31.2922168 C79.1396484,14.0262158 65.1706243,0.0265374492 47.92834,0 C30.8943765,-0.0264610861 16.8873943,13.7439409 16.6226773,30.7979479 C16.4783826,39.2899989 19.7993717,47.4737986 25.8187158,53.4594303 L25.7818856,53.4594303 L45.9913022,75.2349154 C46.5159803,75.8003464 47.2528353,76.1205575 48.0237625,76.1181641 C48.7946897,76.1157437 49.5295351,75.790938 50.0506798,75.2222418 L69.9781152,53.4594303 L69.9412851,53.4594303 C75.838176,47.594228 79.1497358,39.6136519 79.1396484,31.2922168 Z" id="路径" fill="#FFFFFF" fill-rule="nonzero" opacity="0.5"></path>
                        <circle id="椭圆形" fill="#FFFFFF" fill-rule="nonzero" cx="47.9370117" cy="31.6674805" r="18.8842773"></circle>
                    </g>
                </g>
            </g>
        </g>
    </g>
</svg>