<?xml version="1.0" standalone="no"?>
<!DOCTYPE svg PUBLIC "-//W3C//DTD SVG 1.1//EN" "http://www.w3.org/Graphics/SVG/1.1/DTD/svg11.dtd" >
<svg xmlns="http://www.w3.org/2000/svg" xmlns:xlink="http://www.w3.org/1999/xlink" version="1.1">
<metadata>
Created by FontForge 20170924 at Sat Sep 29 16:40:24 2018
 By www-data
</metadata>
<defs>
<font id="SourceHanSansCN-Regular-Alphabetic" horiz-adv-x="1000" vert-adv-y="1000" >
  <font-face 
    font-family="SourceHanSansCN-Regular-Alphabetic"
    font-weight="400"
    font-stretch="normal"
    units-per-em="1000"
    panose-1="2 0 5 3 0 0 0 0 0 0"
    ascent="800"
    descent="-200"
    bbox="29 -250 969 808"
    underline-thickness="50"
    underline-position="-250"
    unicode-range="U+FF21-FF5A"
  />
<missing-glyph horiz-adv-x="364" 
d="M33 0v666h265v-666h-265zM66 33h199v600h-199v-600z" />
    <glyph glyph-name=".notdef" horiz-adv-x="364" 
d="M33 0v666h265v-666h-265zM66 33h199v600h-199v-600z" />
    <glyph glyph-name=".null" horiz-adv-x="0" vert-adv-y="0" 
 />
    <glyph glyph-name="nonmarkingreturn" horiz-adv-x="333" 
 />
    <glyph glyph-name="Identity.59024" unicode="&#xff21;" 
d="M732 0l-83 224h-312l-83 -224h-97l280 735h113l283 -735h-101zM359 296h269l-44 117q-66 183 -89 247h-4q-21 -65 -88 -247z" />
    <glyph glyph-name="Identity.59025" unicode="&#xff22;" 
d="M240 0v735h249q280 0 280 -181q0 -56 -30 -99t-88 -60v-5q78 -13 121 -58t43 -117q0 -111 -75 -163t-230 -52h-270zM332 422h142q105 0 153.5 29t48.5 91q0 65 -46.5 92.5t-147.5 27.5h-150v-240zM332 74h167q117 0 170.5 32.5t53.5 111.5q0 69 -54 100.5t-173 31.5h-164
v-276z" />
    <glyph glyph-name="Identity.59026" unicode="&#xff23;" 
d="M822 93q-105 -105 -257 -105q-160 0 -260.5 102t-100.5 276t101 277.5t265 103.5q136 0 231 -91l-53 -60q-75 70 -177 70q-124 0 -198 -80.5t-74 -216.5q0 -137 73.5 -218t196.5 -81q113 0 201 83z" />
    <glyph glyph-name="Identity.59027" unicode="&#xff24;" 
d="M223 0v735h203q193 0 293.5 -94.5t100.5 -269.5q0 -176 -100 -273.5t-289 -97.5h-208zM313 77h107q150 0 227.5 75.5t77.5 218.5q0 141 -77 214t-228 73h-107v-581z" />
    <glyph glyph-name="Identity.59028" unicode="&#xff25;" 
d="M279 0v735h481v-79h-389v-231h313v-79h-313v-267h402v-79h-494z" />
    <glyph glyph-name="Identity.59029" unicode="&#xff26;" 
d="M298 0v735h482v-79h-390v-249h316v-79h-316v-328h-92z" />
    <glyph glyph-name="Identity.59030" unicode="&#xff27;" 
d="M807 72q-97 -85 -255 -85q-168 0 -271.5 102t-103.5 277q0 174 106 277.5t273 103.5q141 0 242 -91l-53 -60q-79 70 -187 70q-127 0 -206.5 -81t-79.5 -216q0 -138 77.5 -219t212.5 -81q106 0 160 43v191h-187v77h272v-308z" />
    <glyph glyph-name="Identity.59031" unicode="&#xff28;" 
d="M202 0v735h93v-309h411v309h92v-735h-92v346h-411v-346h-93z" />
    <glyph glyph-name="Identity.59032" unicode="&#xff29;" 
d="M249 0v78h205v577h-205v80h504v-80h-207v-577h207v-78h-504z" />
    <glyph glyph-name="Identity.59033" unicode="&#xff2a;" 
d="M695 216q0 -102 -56 -165t-170 -63q-149 0 -227 119l66 48q58 -86 152 -86q142 0 142 156v510h93v-519z" />
    <glyph glyph-name="Identity.59034" unicode="&#xff2b;" 
d="M243 0v735h92v-377h4l366 377h107l-266 -281l307 -454h-105l-259 388l-154 -158v-230h-92z" />
    <glyph glyph-name="Identity.59035" unicode="&#xff2c;" 
d="M304 0v735h92v-656h378v-79h-470z" />
    <glyph glyph-name="Identity.59036" unicode="&#xff2d;" 
d="M154 0v735h111l171 -394q9 -22 19.5 -47.5t23.5 -57t20 -48.5h4q12 28 32.5 79.5t29.5 73.5l169 394h112v-735h-86v406q0 75 11 218h-5l-70 -169l-166 -381h-62l-167 381l-69 169h-4q10 -163 10 -218v-406h-84z" />
    <glyph glyph-name="Identity.59037" unicode="&#xff2e;" 
d="M207 0v735h94l312 -459l100 -156h5q-12 125 -12 234v381h89v-735h-96l-312 460l-98 155h-5q10 -148 10 -230v-385h-87z" />
    <glyph glyph-name="Identity.59038" unicode="&#xff2f;" 
d="M855 370q0 -175 -97 -278.5t-258 -103.5q-158 0 -256.5 104t-98.5 278t98 275.5t257 101.5t257 -101.5t98 -275.5zM240 370q0 -137 71.5 -219t188.5 -82q118 0 189 82t71 219q0 136 -71 216t-189 80t-189 -80t-71 -216z" />
    <glyph glyph-name="Identity.59039" unicode="&#xff30;" 
d="M253 0v735h234q151 0 231 -51t80 -165q0 -113 -81 -170t-225 -57h-147v-292h-92zM345 367h134q115 0 171 36.5t56 115.5q0 78 -56.5 109t-175.5 31h-129v-292z" />
    <glyph glyph-name="Identity.59040" unicode="&#xff31;" 
d="M858 -93l19 -71q-45 -20 -121 -20q-111 0 -188 47.5t-115 126.5q-139 16 -223.5 118t-84.5 262q0 174 98 275.5t256 101.5t256.5 -101.5t98.5 -275.5q0 -157 -82.5 -258t-217.5 -119q27 -48 84 -74t131 -26q45 0 89 14zM499 64q117 0 188.5 83t71.5 223q0 136 -71.5 216
t-188.5 80q-118 0 -189 -80t-71 -216q0 -140 71 -223t189 -83z" />
    <glyph glyph-name="Identity.59041" unicode="&#xff32;" 
d="M823 0h-105l-210 311h-166v-311h-88v735h252q292 0 292 -207q0 -83 -52 -135t-145 -68zM342 659v-274h150q212 0 212 143q0 71 -53 101t-159 30h-150z" />
    <glyph glyph-name="Identity.59042" unicode="&#xff33;" 
d="M790 194q0 -91 -76.5 -149t-204.5 -58q-177 0 -297 112l56 64q47 -43 112 -68.5t131 -25.5q82 0 133.5 31.5t51.5 85.5q0 27 -11 48t-35 37t-45 25.5t-59 23.5l-119 42q-173 63 -173 187q0 88 73 143t187 55q150 0 251 -93l-51 -61q-88 73 -201 73q-72 0 -118.5 -28.5
t-46.5 -78.5q0 -26 12.5 -46t38 -35t45 -23.5t52.5 -19.5l118 -42q176 -62 176 -199z" />
    <glyph glyph-name="Identity.59043" unicode="&#xff34;" 
d="M453 0v657h-263v78h620v-78h-264v-657h-93z" />
    <glyph glyph-name="Identity.59044" unicode="&#xff35;" 
d="M708 735h93v-431q0 -85 -23.5 -148t-65.5 -99t-94.5 -53t-117.5 -17q-64 0 -116 17t-93 53t-64 98.5t-23 148.5v431h91v-434q0 -123 56.5 -177.5t148.5 -54.5q93 0 150.5 54.5t57.5 177.5v434z" />
    <glyph glyph-name="Identity.59045" unicode="&#xff36;" 
d="M447 0l-271 735h97l142 -399q79 -225 85 -242h5q16 43 43 121t42 121l141 399h94l-271 -735h-107z" />
    <glyph glyph-name="Identity.59046" unicode="&#xff37;" 
d="M214 0l-185 735h95l95 -398q12 -58 55 -237h4q38 146 64 237l118 398h84l120 -399q12 -46 36.5 -134.5t28.5 -101.5h5q22 98 50 236l96 399h89l-180 -735h-112l-132 442q-14 49 -43 169h-4q-4 -16 -19.5 -75.5t-24.5 -93.5l-130 -442h-110z" />
    <glyph glyph-name="Identity.59047" unicode="&#xff38;" 
d="M197 0l247 378l-231 357h103l119 -189q31 -50 68 -107h4q33 58 64 107l116 189h98l-230 -359l249 -376h-106l-126 198q-11 19 -36.5 58t-38.5 60h-4q-17 -27 -43.5 -71t-28.5 -47l-124 -198h-100z" />
    <glyph glyph-name="Identity.59048" unicode="&#xff39;" 
d="M454 0v286l-255 449h98l115 -207q69 -130 86 -161h4q51 87 89 161l114 207h96l-255 -449v-286h-92z" />
    <glyph glyph-name="Identity.59049" unicode="&#xff3a;" 
d="M216 0v56l446 601h-412v78h531v-55l-446 -601h458v-79h-577z" />
    <glyph glyph-name="Identity.59056" unicode="&#xff41;" 
d="M255 141q0 91 92.5 139t302.5 64q-2 62 -36.5 100t-108.5 38q-89 0 -190 -66l-37 63q118 77 242 77q109 0 165 -59t56 -163v-334h-75l-8 74h-3q-112 -86 -215 -86q-79 0 -132 41t-53 112zM344 148q0 -44 34 -65.5t87 -21.5q90 0 185 80v143q-168 -13 -237 -46t-69 -90z
" />
    <glyph glyph-name="Identity.59057" unicode="&#xff42;" 
d="M787 281q0 -134 -76 -213.5t-189 -79.5q-101 0 -184 68h-4l-9 -56h-73v796h92v-219l-4 -98q105 77 203 77q118 0 181 -75t63 -200zM344 123q77 -59 161 -59q81 0 134 58.5t53 156.5q0 92 -42.5 146t-130.5 54q-83 0 -175 -74v-282z" />
    <glyph glyph-name="Identity.59058" unicode="&#xff43;" 
d="M253 271q0 131 87.5 208t216.5 77q115 0 198 -79l-45 -58q-69 60 -150 60q-94 0 -153 -58t-59 -150q0 -93 58 -150t152 -57q90 0 169 68l41 -60q-93 -84 -217 -84q-131 0 -214.5 76t-83.5 207z" />
    <glyph glyph-name="Identity.59059" unicode="&#xff44;" 
d="M661 63q-83 -76 -196 -76t-182.5 76t-69.5 208q0 128 78 207t187 79q95 0 182 -63l-5 93l1 209h91v-796h-74l-9 63h-3zM307 272q0 -95 50.5 -151.5t130.5 -56.5q87 0 168 75v284q-75 57 -161 57q-79 0 -133.5 -58.5t-54.5 -149.5z" />
    <glyph glyph-name="Identity.59060" unicode="&#xff45;" 
d="M232 271q0 127 85.5 206t200.5 79q119 0 188 -69.5t69 -184.5q0 -25 -4 -53h-445q3 -85 63.5 -136.5t154.5 -51.5q98 0 177 50l32 -61q-95 -62 -220 -62q-129 0 -215 77t-86 206zM325 315h366q0 80 -45.5 124.5t-126.5 44.5q-73 0 -128 -46t-66 -123z" />
    <glyph glyph-name="Identity.59061" unicode="&#xff46;" 
d="M811 777l-22 -68q-58 25 -126 25q-138 0 -138 -141v-49h229v-74h-229v-470h-89v470h-156v69l156 5v46q0 102 54.5 160t163.5 58q84 0 157 -31z" />
    <glyph glyph-name="Identity.59062" unicode="&#xff47;" 
d="M235 -99q0 68 89 120v5q-56 29 -56 89q0 56 68 102v5q-69 54 -69 140q0 87 65.5 140.5t158.5 53.5q53 0 86 -12h222v-70h-143q53 -46 53 -114q0 -86 -62 -137t-156 -51q-56 0 -102 21q-43 -29 -43 -63q0 -63 112 -63h133q106 0 156 -30.5t50 -97.5q0 -78 -83.5 -133.5
t-217.5 -55.5q-124 0 -192.5 39.5t-68.5 111.5zM491 233q57 0 95.5 36t38.5 93q0 56 -39.5 92.5t-94.5 36.5q-57 0 -96.5 -36t-39.5 -93t39 -93t97 -36zM314 -91q0 -44 49 -70t140 -26t148 33.5t57 79.5q0 36 -30 51t-95 15h-117q-52 0 -83 9q-69 -39 -69 -92z" />
    <glyph glyph-name="Identity.59063" unicode="&#xff48;" 
d="M261 0v796h91v-215l-3 -115q103 91 213 91q91 0 139 -53.5t48 -159.5v-344h-92v332q0 77 -32 111t-96 34q-82 0 -177 -83v-394h-91z" />
    <glyph glyph-name="Identity.59064" unicode="&#xff49;" 
d="M520 0v470h-247v74h338v-544h-91zM555 656q-31 0 -50.5 18.5t-19.5 48.5q0 31 19.5 49.5t50.5 18.5q30 0 49.5 -19t19.5 -49t-19.5 -48.5t-49.5 -18.5z" />
    <glyph glyph-name="Identity.59065" unicode="&#xff4a;" 
d="M266 470v74h344v-559q0 -108 -52 -168t-177 -60q-82 0 -154 36l29 69q60 -31 125 -31q77 0 107.5 37t30.5 111v491h-253zM556 656q-30 0 -49.5 18.5t-19.5 48.5t19.5 49t49.5 19t50 -19t20 -49t-20 -48.5t-50 -18.5z" />
    <glyph glyph-name="Identity.59066" unicode="&#xff4b;" 
d="M289 0v796h90v-541h3l278 288h103l-210 -217l240 -326h-102l-192 265l-120 -122v-143h-90z" />
    <glyph glyph-name="Identity.59067" unicode="&#xff4c;" 
d="M255 721v75h277v-620q0 -112 107 -112q45 0 103 23l23 -68q-89 -31 -145 -31q-87 0 -132.5 49.5t-45.5 146.5v537h-187z" />
    <glyph glyph-name="Identity.59068" unicode="&#xff4d;" 
d="M77 0v545h75l9 -81h3q100 93 200 93q125 0 170 -104q113 104 211 104q184 0 184 -213v-344h-91v332q0 75 -30.5 110t-93.5 35q-77 0 -166 -83v-394h-91v332q0 145 -124 145q-79 0 -165 -83v-394h-91z" />
    <glyph glyph-name="Identity.59069" unicode="&#xff4e;" 
d="M260 0v545h74l9 -81h3q107 93 215 93q189 0 189 -213v-344h-95v332q0 75 -31.5 110t-96.5 35q-46 0 -85.5 -19.5t-90.5 -63.5v-394h-91z" />
    <glyph glyph-name="Identity.59070" unicode="&#xff4f;" 
d="M500 -12q-118 0 -201.5 77t-83.5 206q0 131 83 208t202 77t202 -77t83 -208q0 -129 -83.5 -206t-201.5 -77zM500 64q85 0 136.5 57t51.5 150t-51.5 150.5t-136.5 57.5q-84 0 -136 -57.5t-52 -150.5t52 -150t136 -57z" />
    <glyph glyph-name="Identity.59071" unicode="&#xff50;" 
d="M252 -229v774h75l8 -65h4q107 77 204 77q118 0 180.5 -74t62.5 -203q0 -134 -76.5 -213.5t-189.5 -79.5q-91 0 -179 62l2 -71v-207h-91zM343 406v-283q78 -59 161 -59t135 58t52 157q0 201 -173 201q-79 0 -175 -74z" />
    <glyph glyph-name="Identity.59072" unicode="&#xff51;" 
d="M655 -229l1 194l5 97q-89 -75 -195 -75q-115 0 -183.5 75t-68.5 209q0 128 78.5 207t187.5 79q96 0 182 -66h5l9 54h71v-774h-92zM308 272q0 -97 48.5 -152.5t130.5 -55.5q91 0 169 75v284q-74 57 -162 57q-78 0 -132 -58.5t-54 -149.5z" />
    <glyph glyph-name="Identity.59073" unicode="&#xff52;" 
d="M328 0v544h76l8 -128h2q92 140 243 140q63 0 111 -22l-24 -78q-51 19 -100 19q-136 0 -225 -156v-319h-91z" />
    <glyph glyph-name="Identity.59074" unicode="&#xff53;" 
d="M245 72l44 60q100 -74 226 -74q70 0 107.5 24t37.5 60q0 33 -40 58.5t-137 48.5q-207 52 -207 155q0 67 59.5 109.5t168.5 42.5q121 0 219 -69l-44 -58q-82 57 -175 57q-135 0 -135 -78q0 -31 42 -53.5t124 -43.5q115 -29 166 -65.5t51 -97.5q0 -68 -64.5 -114
t-175.5 -46q-149 0 -267 84z" />
    <glyph glyph-name="Identity.59075" unicode="&#xff54;" 
d="M395 213v257h-154v69l158 5l11 153h76v-153h268v-74h-268v-259q0 -77 31 -113t107 -36q66 0 131 24l20 -67q-89 -31 -170 -31q-113 0 -161.5 58.5t-48.5 166.5z" />
    <glyph glyph-name="Identity.59076" unicode="&#xff55;" 
d="M652 86q-99 -99 -213 -99q-91 0 -138 54.5t-47 158.5v345h92v-333q0 -76 31.5 -110.5t94.5 -34.5q87 0 175 92v386h91v-545h-75l-8 86h-3z" />
    <glyph glyph-name="Identity.59077" unicode="&#xff56;" 
d="M449 0l-226 545h94l123 -311q20 -50 60 -160h5q7 19 27.5 74.5t31.5 85.5l124 311h89l-222 -545h-106z" />
    <glyph glyph-name="Identity.59078" unicode="&#xff57;" 
d="M252 0l-178 545h93l99 -316q7 -28 21 -78.5t20 -72.5h6q8 29 24.5 84.5t19.5 64.5l100 318h89l102 -316q9 -26 46 -151h5l18 66q15 55 24 85l96 316h87l-171 -545h-111l-94 293q-8 25 -23 76.5t-24 80.5h-5q-17 -62 -48 -159l-90 -291h-106z" />
    <glyph glyph-name="Identity.59079" unicode="&#xff58;" 
d="M239 0l205 284l-189 261h99l87 -121q8 -12 30 -43t34 -48h4q8 13 58 92l82 120h96l-190 -270l206 -275h-100l-95 127q-12 18 -72 98h-4q-35 -52 -65 -98l-90 -127h-96z" />
    <glyph glyph-name="Identity.59080" unicode="&#xff59;" 
d="M544 -46q-37 -89 -90.5 -138.5t-135.5 -49.5q-40 0 -73 12l19 73q22 -10 49 -10q98 0 143 117l15 41l-250 546h96l131 -303q11 -25 33 -78t32 -76h5q43 120 55 154l116 303h90z" />
    <glyph glyph-name="Identity.59081" unicode="&#xff5a;" 
d="M253 0v49l364 421h-326v74h448v-49l-362 -421h374v-74h-498z" />
  </font>
</defs>
</svg>
