<?xml version="1.0" encoding="UTF-8"?>
<svg width="32px" height="31px" viewBox="0 0 32 31" version="1.1" xmlns="http://www.w3.org/2000/svg" xmlns:xlink="http://www.w3.org/1999/xlink">
    <!-- Generator: Sketch 59.1 (86144) - https://sketch.com -->
    <title>bill</title>
    <desc>Created with Sketch.</desc>
    <g id="iOS" stroke="none" stroke-width="1" fill="none" fill-rule="evenodd">
        <g id="（登录前）首页" transform="translate(-171.000000, -392.000000)">
            <g id="组件/菜单/按钮菜单" transform="translate(5.000000, 378.000000)">
                <g id="图标" transform="translate(159.000000, 13.000000)">
                    <g id="icon/积分商城" transform="translate(7.000000, 1.000000)">
                        <g id="bill">
                            <path d="M10.6666667,17.5445238 C10.6666667,19.390396 11.6831942,21.0960523 13.3333333,22.0189885 C14.9834724,22.9419246 17.0165276,22.9419246 18.6666667,22.0189885 C20.3168058,21.0960523 21.3333333,19.390396 21.3333333,17.5445238 C21.3333333,14.6910526 18.9455187,12.3778571 16,12.3778571 C13.0544813,12.3778571 10.6666667,14.6910526 10.6666667,17.5445238 L10.6666667,17.5445238 Z" id="风格颜色" fill="#07C160"></path>
                            <path d="M16,16.7916667 C15.8989685,16.7928598 15.8021184,16.7526497 15.7333333,16.6809524 L13.8819048,14.887381 C13.7295238,14.7397619 13.7295238,14.5109524 13.8819048,14.3633333 C14.0342857,14.2157143 14.2704762,14.2157143 14.4228572,14.3633333 L16,15.8985714 L17.5771428,14.3707143 C17.7295238,14.2230953 17.9657143,14.2230953 18.1180953,14.3707143 C18.2704762,14.5183333 18.2704762,14.7471429 18.1180953,14.8947619 L16.2666667,16.6883333 C16.2129905,16.7384551 16.1457416,16.7718446 16.0735372,16.7851627 L16,16.7916667 Z" id="路径" fill-opacity="0.9" fill="#000000"></path>
                            <path d="M18.4685714,17.7069048 L13.5238095,17.7069048 C13.3104762,17.7069048 13.1428572,17.5445238 13.1428572,17.3378571 C13.1428572,17.1311905 13.3104762,16.9688095 13.5238095,16.9688095 L18.4685714,16.9688095 C18.6819048,16.9688095 18.8495238,17.1311905 18.8495238,17.3378571 C18.8495238,17.5445238 18.6819047,17.7069048 18.4685714,17.7069048 Z" id="路径" fill-opacity="0.9" fill="#000000"></path>
                            <path d="M16,16.0535714 C16.2133333,16.0535714 16.3809524,16.2159524 16.3809524,16.422619 L16.3808572,18.813494 L18.4685714,18.8140476 C18.6819048,18.8140476 18.8495238,18.9764286 18.8495238,19.1830952 C18.8495238,19.3897619 18.6819047,19.5521429 18.4685714,19.5521429 L16.3808572,19.5516815 L16.3809524,21.1169048 C16.3809524,21.3235715 16.2133333,21.4859524 16,21.4859524 C15.7866667,21.4859524 15.6190476,21.3235714 15.6190476,21.1169048 L15.6188572,19.5516815 L13.5238095,19.5521429 C13.3104762,19.5521429 13.1428572,19.3897619 13.1428572,19.1830952 C13.1428572,18.9764285 13.3104762,18.8140476 13.5238095,18.8140476 L15.6188572,18.813494 L15.6190476,16.422619 C15.6190476,16.2159524 15.7866667,16.0535714 16,16.0535714 Z" id="路径" fill-opacity="0.9" fill="#000000"></path>
                            <path d="M8.60952381,3.68125 C8.9333141,3.68125 9.19047619,3.93037579 9.19047619,4.24404761 C9.19047619,4.55771943 8.93331407,4.80684523 8.60952381,4.80684523 L5.33333334,4.80684523 C4.81140934,4.80684523 4.39047619,5.21462421 4.39047619,5.7202381 L4.38957144,7.79919048 L27.6085714,7.79919048 L27.6095238,5.7202381 C27.6095238,5.21462422 27.1885907,4.80684523 26.6666667,4.80684523 L23.2152381,4.80684523 C22.8914478,4.80684523 22.6342857,4.55771944 22.6342857,4.24404761 C22.6342857,3.9303758 22.8914478,3.68125 23.2152381,3.68125 L26.6666667,3.68125 C27.2248842,3.68125 27.7602386,3.89607134 28.1549581,4.27845579 C28.5496775,4.66084023 28.7714286,5.17946483 28.7714286,5.7202381 L28.7714286,25.73 C28.7714286,26.8616963 27.8298513,27.776369 26.6666667,27.776369 L5.33333334,27.776369 C4.17090545,27.776369 3.22857144,26.863483 3.22857144,25.737381 L3.22857144,5.7202381 C3.22857144,4.59413607 4.17090544,3.68125 5.33333334,3.68125 L8.60952381,3.68125 Z M27.6085714,8.92519048 L4.38957144,8.92519048 L4.39047619,25.73 C4.39047619,26.2356139 4.81140934,26.6433929 5.33333334,26.6433929 L26.6666667,26.6433929 C27.1885907,26.6433929 27.6095238,26.2356139 27.6095238,25.73 L27.6085714,8.92519048 Z M16,10.9680952 C19.7409524,10.9680952 22.7885714,13.9204762 22.7885714,17.5445238 C22.7885714,19.3011905 22.08,20.9545238 20.8,22.1945238 C20.6933333,22.2978571 20.5257143,22.3347619 20.3885714,22.2757143 C20.2514286,22.2166667 20.152381,22.0838095 20.1523809,21.9361905 L20.1523809,19.8547619 C20.1523809,19.6480952 20.32,19.4857143 20.5333333,19.4857143 C20.7466667,19.4857143 20.9142857,19.6480953 20.9142857,19.8547619 L20.9142857,20.932381 C21.6420115,19.94374 22.0310885,18.7587707 22.0266667,17.5445238 C22.0266667,14.3264286 19.3219048,11.7061905 16,11.7061905 C12.6780952,11.7061905 9.97333334,14.3264286 9.97333334,17.5445238 C9.97333334,20.762619 12.6780952,23.3828571 16,23.3828571 C16.2133333,23.3828571 16.3809524,23.5452381 16.3809524,23.7519048 C16.3809524,23.9585715 16.2133333,24.1209524 16,24.1209524 C12.2590476,24.1209524 9.21142856,21.1685714 9.21142856,17.5445238 C9.21142856,13.9204762 12.2590476,10.9680952 16,10.9680952 Z M20.5485714,1.94119048 C21.3866667,1.94119048 22.0723809,2.60547619 22.0723809,3.41738097 L22.0723809,4.89357142 C22.0723809,5.7088489 21.3901482,6.3697619 20.5485714,6.3697619 C19.7104762,6.3697619 19.0247619,5.70547619 19.0247619,4.89357142 L19.0247619,3.41738097 C19.0247619,2.60547619 19.7104762,1.94119048 20.5485714,1.94119048 Z M11.2761905,1.94119048 C12.1142857,1.94119048 12.8,2.60547619 12.8,3.41738097 L12.8,4.89357142 C12.8,5.71285713 12.1219048,6.3697619 11.2761905,6.3697619 C10.4380952,6.3697619 9.75238094,5.70547619 9.75238094,4.89357142 L9.75238094,3.41738097 C9.75238094,2.60547619 10.4380952,1.94119048 11.2761905,1.94119048 Z M20.5485714,2.67928571 C20.1295238,2.67928571 19.7866667,3.01142858 19.7866667,3.41738097 L19.7866667,4.89357142 C19.7866667,5.29952381 20.1295238,5.63166668 20.5485714,5.63166668 C20.9676191,5.63166668 21.3104762,5.29952381 21.3104762,4.89357142 L21.3104762,3.41738097 C21.3104762,3.01142858 20.967619,2.67928571 20.5485714,2.67928571 Z M11.2761905,2.67928571 C10.8571428,2.67928571 10.5142857,3.01142858 10.5142857,3.41738097 L10.5142857,4.89357142 C10.5142857,5.29952381 10.8571429,5.63166668 11.2761905,5.63166668 C11.6952381,5.63166668 12.0380953,5.29952381 12.0380953,4.89357142 L12.0380953,3.41738097 C12.0380953,3.01142858 11.7028572,2.67928571 11.2761905,2.67928571 Z M17.8819047,3.68125 C18.205695,3.68125 18.4628572,3.93037579 18.4628572,4.24404761 C18.4628572,4.55771944 18.205695,4.80684523 17.8819047,4.80684523 L13.9428572,4.80684523 C13.6190669,4.80684523 13.3619047,4.55771944 13.3619047,4.24404761 C13.3619047,3.93037579 13.6190669,3.68125 13.9428572,3.68125 L17.8819047,3.68125 Z" id="骨架" fill-opacity="0.9" fill="#000000"></path>
                        </g>
                    </g>
                </g>
            </g>
        </g>
    </g>
</svg>