<?xml version="1.0" encoding="UTF-8"?>
<svg width="375px" height="96px" viewBox="0 0 375 96" version="1.1" xmlns="http://www.w3.org/2000/svg" xmlns:xlink="http://www.w3.org/1999/xlink">
    <!-- Generator: Sketch 59.1 (86144) - https://sketch.com -->
    <title>我的优惠券/领券中心</title>
    <desc>Created with Sketch.</desc>
    <defs>
        <rect id="path-1" x="0" y="0" width="375" height="96"></rect>
    </defs>
    <g id="iOS-最新版本" stroke="none" stroke-width="1" fill="none" fill-rule="evenodd">
        <g id="我的优惠券/领券中心">
            <mask id="mask-2" fill="white">
                <use xlink:href="#path-1"></use>
            </mask>
            <g id="蒙版" fill-rule="nonzero"></g>
            <g id="3.通用组件/彩色版/票据" opacity="0.400000006" mask="url(#mask-2)">
                <g transform="translate(273.000000, 19.000000)" id="资源-12">
                    <g transform="translate(0.476426, 0.759679)">
                        <g id="资源-11">
                            <g id="分组-2" transform="translate(16.028151, 4.315271)">
                                <rect id="矩形-copy" fill="#FFFFFF" fill-rule="nonzero" opacity="0.200000003" x="-5.68434189e-13" y="0.117128796" width="98.4852819" height="49.3543756" rx="3.69880407"></rect>
                                <rect id="矩形-copy-2" fill="#FFFFFF" fill-rule="nonzero" opacity="0.200000003" x="39.4539101" y="12.4464757" width="44.231532" height="4.93173876" rx="1.23293469"></rect>
                                <rect id="矩形-copy-3" fill="#FFFFFF" fill-rule="nonzero" opacity="0.200000003" x="39.4539101" y="32.1734307" width="24.8128106" height="4.93173876" rx="1.23293469"></rect>
                                <rect id="矩形-copy-4" fill="#FFFFFF" fill-rule="nonzero" opacity="0.200000003" x="39.4539101" y="22.3099532" width="44.231532" height="4.93173876" rx="1.23293469"></rect>
                                <rect id="矩形-copy-5" fill="#FFFFFF" fill-rule="nonzero" opacity="0.200000003" x="6.16467345" y="12.4464757" width="19.726955" height="19.726955" rx="2.46586938"></rect>
                                <line x1="32.1333604" y1="12.4464757" x2="32.1333604" y2="44.5551774" id="路径-copy" stroke="#FFFFFF" stroke-width="0.770584181" stroke-linecap="round" stroke-linejoin="round"></line>
                            </g>
                            <rect id="矩形" fill="#FFFFFF" fill-rule="nonzero" opacity="0.5" x="0" y="34.5221713" width="98.4852819" height="49.3543756" rx="3.69880407"></rect>
                            <rect id="矩形" fill="#FFFFFF" fill-rule="nonzero" opacity="0.5" x="39.4539101" y="46.8515182" width="44.231532" height="4.93173876" rx="1.23293469"></rect>
                            <rect id="矩形" fill="#FFFFFF" fill-rule="nonzero" opacity="0.5" x="39.4539101" y="66.5784733" width="24.8128106" height="4.93173876" rx="1.23293469"></rect>
                            <rect id="矩形" fill="#FFFFFF" fill-rule="nonzero" opacity="0.5" x="39.4539101" y="56.7149957" width="44.231532" height="4.93173876" rx="1.23293469"></rect>
                            <rect id="矩形" fill="#FFFFFF" fill-rule="nonzero" opacity="0.5" x="6.16467345" y="46.8515182" width="19.726955" height="19.726955" rx="2.46586938"></rect>
                            <line x1="32.1333604" y1="46.8515182" x2="32.1333604" y2="78.9602199" id="路径" stroke="#FFFFFF" stroke-width="0.770584181" stroke-linecap="round" stroke-linejoin="round"></line>
                        </g>
                    </g>
                </g>
            </g>
            <g id="编组" opacity="0.1" mask="url(#mask-2)" fill="#FFFFFF" fill-rule="nonzero">
                <g transform="translate(139.000000, 10.500000) rotate(-90.000000) translate(-139.000000, -10.500000) translate(40.000000, -157.000000)" id="路径">
                    <path d="M70.5,0.5 C70.5,0.5 70.5,18.4057426 70.5,31.1295583 C70.5,38.821286 74.5873044,45.9136582 81.2037696,49.7720086 C101.753201,61.6841972 144.70377,86.594906 144.70377,86.594906 L70.5,129.636116 C70.5,129.636116 70.5,129.636116 70.5,129.648602 C70.5,138.526554 75.2195946,146.717745 82.8748222,151.175451 C90.5300498,155.608183 99.969239,155.608183 107.624467,151.175451 C131.967639,137.040652 163.514403,118.747826 186.79623,105.249843 C193.435277,101.403979 197.5,94.2991203 197.5,86.6073926 C197.5,78.915665 193.412696,71.8108062 186.79623,67.9649423 C143.123044,42.6296901 70.5,0.5 70.5,0.5 Z"></path>
                    <path d="M197.5,51.5 C197.5,51.5 197.5,72.9474072 197.5,88.1729724 C197.5,97.3860846 192.593298,105.896248 184.650406,110.502804 C151.170978,129.871279 63.8804871,180.393832 63.8804871,180.393832 L197.5,257.733123 L197.5,257.733123 C197.5,268.367088 191.86136,278.193411 182.67146,283.517872 C173.48156,288.827376 162.150062,288.827376 152.960162,283.517872 C112.107128,259.871881 52.2236824,225.218016 13.3495941,202.723664 C5.40670153,198.117108 0.5,189.606944 0.5,180.393832 C0.5,171.18072 5.40670153,162.685513 13.3495941,158.078957 C77.1096051,121.181639 197.5,51.5 197.5,51.5 Z" transform="translate(99.000000, 169.500000) rotate(-180.000000) translate(-99.000000, -169.500000) "></path>
                    <path d="M167.960914,203.491011 C173.746215,200.169663 180.879714,200.169663 186.665015,203.491011 C192.450317,206.821714 196,212.968546 196,219.620597 L196,219.620597 L111.882742,268 L196,316.379403 L196,316.379403 C196,323.031454 192.450317,329.178286 186.665015,332.508989 C180.879714,335.830337 173.746215,335.830337 167.960914,332.508989 C142.242775,317.717298 104.544454,296.039658 80.0891825,281.968371 C75.0889072,279.086752 72,273.76324 72,268 C72,262.23676 75.0889072,256.922604 80.0891825,254.040984 C104.544454,239.969698 142.242775,218.292058 167.960914,203.491011 Z"></path>
                </g>
            </g>
        </g>
    </g>
</svg>