<?xml version="1.0" encoding="UTF-8"?>
<svg width="110px" height="131px" viewBox="0 0 110 131" version="1.1" xmlns="http://www.w3.org/2000/svg" xmlns:xlink="http://www.w3.org/1999/xlink">
    <!-- Generator: Sketch 59.1 (86144) - https://sketch.com -->
    <title>首页-会员面板</title>
    <desc>Created with Sketch.</desc>
    <defs>
        <rect id="path-1" x="0" y="0" width="351" height="131" rx="4"></rect>
    </defs>
    <g id="iOS-最新版本" stroke="none" stroke-width="1" fill="none" fill-rule="evenodd">
        <g id="首页-会员面板" transform="translate(-241.000000, 0.000000)">
            <g id="编组-3">
                <g id="编组-2备份">
                    <g id="编组">
                        <mask id="mask-2" fill="white">
                            <use xlink:href="#path-1"></use>
                        </mask>
                        <g id="蒙版" fill-rule="nonzero"></g>
                        <g opacity="0.1" mask="url(#mask-2)" fill="#FFFFFF" id="路径">
                            <g transform="translate(241.000000, -39.000000)">
                                <path d="M43,0 C43,0 43,10.9294793 43,18.6959642 C43,23.3909148 45.5103129,27.7200251 49.5739687,30.0751221 C62.1948791,37.3461983 88.5739687,52.5514362 88.5739687,52.5514362 L43,78.8233434 C43,78.8233434 43,78.8233434 43,78.8309651 C43,84.2499747 45.8986486,89.2497922 50.6002845,91.9707295 C55.3019203,94.6764235 61.0992176,94.6764235 65.8008535,91.9707295 C80.7517781,83.3429956 100.126956,72.1772444 114.426031,63.9382158 C118.503556,61.5907405 121,57.2540085 121,52.5590578 C121,47.8641072 118.489687,43.5273752 114.426031,41.1798999 C87.6031294,25.7155251 43,0 43,0 Z"></path>
                                <path d="M121,31 C121,31 121,44.1774324 121,53.5321229 C121,59.1927215 117.986239,64.4214237 113.10761,67.251723 C92.5441035,79.151845 38.9291317,110.193244 38.9291317,110.193244 L121,157.711029 L121,157.711029 C121,164.244609 117.536673,170.281968 111.892115,173.553353 C106.247557,176.815549 99.2876015,176.815549 93.6430439,173.553353 C68.5505711,159.025096 31.7693684,137.733527 7.89239026,123.912844 C3.01376084,121.082545 0,115.853843 0,110.193244 C0,104.532646 3.01376084,99.3131328 7.89239026,96.4828335 C47.0546305,73.8128713 121,31 121,31 Z" transform="translate(60.500000, 103.500000) rotate(-180.000000) translate(-60.500000, -103.500000) "></path>
                                <path d="M102.814754,123.52435 C106.360584,121.491883 110.732728,121.491883 114.278558,123.52435 C117.824388,125.562541 120,129.324036 120,133.394694 L120,133.394694 L68.4442609,163 L120,192.605306 L120,192.605306 C120,196.675964 117.824388,200.437459 114.278558,202.47565 C110.732728,204.508117 106.360584,204.508117 102.814754,202.47565 C87.0520231,193.424018 63.9466006,180.158597 48.957886,171.547809 C45.8932012,169.78443 44,166.526759 44,163 C44,159.473241 45.8932012,156.221295 48.957886,154.457916 C63.9466006,145.847129 87.0520231,132.581707 102.814754,123.52435 Z"></path>
                            </g>
                        </g>
                    </g>
                </g>
            </g>
        </g>
    </g>
</svg>