<?xml version="1.0" encoding="UTF-8"?>
<svg width="346px" height="96px" viewBox="0 0 346 96" version="1.1" xmlns="http://www.w3.org/2000/svg" xmlns:xlink="http://www.w3.org/1999/xlink">
    <!-- Generator: Sketch 59.1 (86144) - https://sketch.com -->
    <title>历史订单</title>
    <desc>Created with Sketch.</desc>
    <defs>
        <rect id="path-1" x="0" y="0" width="375" height="96"></rect>
    </defs>
    <g id="iOS-最新版本" stroke="none" stroke-width="1" fill="none" fill-rule="evenodd">
        <g id="历史订单">
            <mask id="mask-2" fill="white">
                <use xlink:href="#path-1"></use>
            </mask>
            <g id="蒙版" fill-rule="nonzero"></g>
            <g id="3.通用组件/彩色版/账单" opacity="0.300000012" mask="url(#mask-2)">
                <g transform="translate(264.000000, 16.000000)" id="资源-4">
                    <g transform="translate(0.335938, 0.078125)">
                        <path d="M3.41254661,95.7532086 L6.78350497,99.1813814 L10.1972068,95.7532086 L13.5681652,99.1813814 L16.981867,95.7532086 L20.3528254,99.1813814 L23.7642168,95.7532086 L27.1351751,99.1813814 L30.548877,95.7532086 L33.9198353,99.1813814 L37.3323819,95.7532086 L40.7033403,99.1813814 L44.1158869,95.7532086 L47.4868453,99.1813814 L50.9005471,95.7532086 L54.2703502,99.1813814 L57.6840521,95.7532086 L61.0550104,99.1813814 L64.467557,95.7532086 L67.8385154,99.1813814 L71.2522172,95.7532086 L74.6277965,99.1825364 L78.0357222,95.7532086 L81.328125,99.1028383 L81.328125,2.77210737 C81.328125,1.24111474 80.0868122,0 78.5555753,0 L2.77254972,0 C1.24131279,0 0,1.24111474 0,2.77210737 L0,99.7265625 L0,99.7265625 L0,99.1825364 L3.41254661,95.7532086 Z" id="路径" fill="#FFFFFF" fill-rule="nonzero" opacity="0.300000012"></path>
                        <rect id="矩形" fill="#FFFFFF" fill-rule="nonzero" x="14.765625" y="33.28125" width="51.796875" height="3.75" rx="1.02272727"></rect>
                        <path d="M2.77254972,0 L78.5555753,0 C80.0868122,0 81.328125,1.25919914 81.328125,2.8125 L81.328125,3.75 L0,3.75 L0,2.8125 C0,1.25919914 1.24131279,0 2.77254972,0 Z" id="路径" fill="#FFFFFF" fill-rule="nonzero"></path>
                        <rect id="矩形" fill="#FFFFFF" fill-rule="nonzero" x="14.765625" y="41.015625" width="51.796875" height="3.75" rx="1.02272727"></rect>
                        <rect id="矩形" fill="#FFFFFF" fill-rule="nonzero" x="14.765625" y="48.75" width="51.796875" height="3.75" rx="1.02272727"></rect>
                        <path d="M7.35255682,74.53125 L23.2333807,74.53125 C23.669717,74.53125 24.0234375,74.8849705 24.0234375,75.3213068 L24.0234375,75.3818182 C24.0234375,75.8181545 23.669717,76.171875 23.2333807,76.171875 L7.35255682,76.171875 C6.91622049,76.171875 6.5625,75.8181545 6.5625,75.3818182 L6.5625,75.3213068 C6.5625,74.8849705 6.91622049,74.53125 7.35255682,74.53125 Z" id="矩形" fill="#FFFFFF" fill-rule="nonzero" transform="translate(15.292969, 75.351562) rotate(90.000000) translate(-15.292969, -75.351562) "></path>
                        <path d="M10.7509943,74.296875 L26.6318182,74.296875 C27.0681545,74.296875 27.421875,74.6505955 27.421875,75.0869318 L27.421875,75.9677557 C27.421875,76.404092 27.0681545,76.7578125 26.6318182,76.7578125 L10.7509943,76.7578125 C10.314658,76.7578125 9.9609375,76.404092 9.9609375,75.9677557 L9.9609375,75.0869318 C9.9609375,74.6505955 10.314658,74.296875 10.7509943,74.296875 Z" id="矩形" fill="#FFFFFF" fill-rule="nonzero" transform="translate(18.691406, 75.527344) rotate(90.000000) translate(-18.691406, -75.527344) "></path>
                        <path d="M27.6259943,74.296875 L43.5068182,74.296875 C43.9431545,74.296875 44.296875,74.6505955 44.296875,75.0869318 L44.296875,75.9677557 C44.296875,76.404092 43.9431545,76.7578125 43.5068182,76.7578125 L27.6259943,76.7578125 C27.189658,76.7578125 26.8359375,76.404092 26.8359375,75.9677557 L26.8359375,75.0869318 C26.8359375,74.6505955 27.189658,74.296875 27.6259943,74.296875 Z" id="矩形" fill="#FFFFFF" fill-rule="nonzero" transform="translate(35.566406, 75.527344) rotate(90.000000) translate(-35.566406, -75.527344) "></path>
                        <path d="M20.8291193,74.296875 L36.7099432,74.296875 C37.1462795,74.296875 37.5,74.6505955 37.5,75.0869318 L37.5,75.9677557 C37.5,76.404092 37.1462795,76.7578125 36.7099432,76.7578125 L20.8291193,76.7578125 C20.392783,76.7578125 20.0390625,76.404092 20.0390625,75.9677557 L20.0390625,75.0869318 C20.0390625,74.6505955 20.392783,74.296875 20.8291193,74.296875 Z" id="矩形" fill="#FFFFFF" fill-rule="nonzero" transform="translate(28.769531, 75.527344) rotate(90.000000) translate(-28.769531, -75.527344) "></path>
                        <path d="M13.8867188,74.8828125 L30.0585938,74.8828125 C30.4145585,74.8828125 30.703125,75.171379 30.703125,75.5273438 C30.703125,75.8833085 30.4145585,76.171875 30.0585938,76.171875 L13.8867188,76.171875 C13.530754,76.171875 13.2421875,75.8833085 13.2421875,75.5273438 C13.2421875,75.171379 13.530754,74.8828125 13.8867188,74.8828125 Z" id="矩形" fill="#FFFFFF" fill-rule="nonzero" transform="translate(21.972656, 75.527344) rotate(90.000000) translate(-21.972656, -75.527344) "></path>
                        <rect id="矩形" fill="#FFFFFF" fill-rule="nonzero" transform="translate(25.371094, 75.527344) rotate(90.000000) translate(-25.371094, -75.527344) " x="16.640625" y="74.8828125" width="17.4609375" height="1.2890625" rx="0.64453125"></rect>
                        <path d="M24.0820312,74.8828125 L40.2539062,74.8828125 C40.609871,74.8828125 40.8984375,75.171379 40.8984375,75.5273438 C40.8984375,75.8833085 40.609871,76.171875 40.2539062,76.171875 L24.0820312,76.171875 C23.7260665,76.171875 23.4375,75.8833085 23.4375,75.5273438 C23.4375,75.171379 23.7260665,74.8828125 24.0820312,74.8828125 Z" id="矩形" fill="#FFFFFF" fill-rule="nonzero" transform="translate(32.167969, 75.527344) rotate(90.000000) translate(-32.167969, -75.527344) "></path>
                        <path d="M30.5273438,75.234375 L47.4023438,75.234375 C47.5641459,75.234375 47.6953125,75.3655416 47.6953125,75.5273438 C47.6953125,75.6891459 47.5641459,75.8203125 47.4023438,75.8203125 L30.5273438,75.8203125 C30.3655416,75.8203125 30.234375,75.6891459 30.234375,75.5273438 C30.234375,75.3655416 30.3655416,75.234375 30.5273438,75.234375 Z" id="矩形" fill="#FFFFFF" fill-rule="nonzero" transform="translate(38.964844, 75.527344) rotate(90.000000) translate(-38.964844, -75.527344) "></path>
                        <path d="M34.3056818,74.53125 L50.1865057,74.53125 C50.622842,74.53125 50.9765625,74.8849705 50.9765625,75.3213068 L50.9765625,75.3818182 C50.9765625,75.8181545 50.622842,76.171875 50.1865057,76.171875 L34.3056818,76.171875 C33.8693455,76.171875 33.515625,75.8181545 33.515625,75.3818182 L33.515625,75.3213068 C33.515625,74.8849705 33.8693455,74.53125 34.3056818,74.53125 Z" id="矩形" fill="#FFFFFF" fill-rule="nonzero" transform="translate(42.246094, 75.351562) rotate(90.000000) translate(-42.246094, -75.351562) "></path>
                        <path d="M37.7041193,74.296875 L53.5849432,74.296875 C54.0212795,74.296875 54.375,74.6505955 54.375,75.0869318 L54.375,75.9677557 C54.375,76.404092 54.0212795,76.7578125 53.5849432,76.7578125 L37.7041193,76.7578125 C37.267783,76.7578125 36.9140625,76.404092 36.9140625,75.9677557 L36.9140625,75.0869318 C36.9140625,74.6505955 37.267783,74.296875 37.7041193,74.296875 Z" id="矩形" fill="#FFFFFF" fill-rule="nonzero" transform="translate(45.644531, 75.527344) rotate(90.000000) translate(-45.644531, -75.527344) "></path>
                        <path d="M54.5791193,74.296875 L70.4599432,74.296875 C70.8962795,74.296875 71.25,74.6505955 71.25,75.0869318 L71.25,75.9677557 C71.25,76.404092 70.8962795,76.7578125 70.4599432,76.7578125 L54.5791193,76.7578125 C54.142783,76.7578125 53.7890625,76.404092 53.7890625,75.9677557 L53.7890625,75.0869318 C53.7890625,74.6505955 54.142783,74.296875 54.5791193,74.296875 Z" id="矩形" fill="#FFFFFF" fill-rule="nonzero" transform="translate(62.519531, 75.527344) rotate(90.000000) translate(-62.519531, -75.527344) "></path>
                        <path d="M47.8994318,74.296875 L63.7802557,74.296875 C64.216592,74.296875 64.5703125,74.6505955 64.5703125,75.0869318 L64.5703125,75.9677557 C64.5703125,76.404092 64.216592,76.7578125 63.7802557,76.7578125 L47.8994318,76.7578125 C47.4630955,76.7578125 47.109375,76.404092 47.109375,75.9677557 L47.109375,75.0869318 C47.109375,74.6505955 47.4630955,74.296875 47.8994318,74.296875 Z" id="矩形" fill="#FFFFFF" fill-rule="nonzero" transform="translate(55.839844, 75.527344) rotate(90.000000) translate(-55.839844, -75.527344) "></path>
                        <path d="M40.9570312,74.8828125 L57.1289062,74.8828125 C57.484871,74.8828125 57.7734375,75.171379 57.7734375,75.5273438 C57.7734375,75.8833085 57.484871,76.171875 57.1289062,76.171875 L40.9570312,76.171875 C40.6010665,76.171875 40.3125,75.8833085 40.3125,75.5273438 C40.3125,75.171379 40.6010665,74.8828125 40.9570312,74.8828125 Z" id="矩形" fill="#FFFFFF" fill-rule="nonzero" transform="translate(49.042969, 75.527344) rotate(90.000000) translate(-49.042969, -75.527344) "></path>
                        <path d="M44.3554688,74.8828125 L60.5273438,74.8828125 C60.8833085,74.8828125 61.171875,75.171379 61.171875,75.5273438 C61.171875,75.8833085 60.8833085,76.171875 60.5273438,76.171875 L44.3554688,76.171875 C43.999504,76.171875 43.7109375,75.8833085 43.7109375,75.5273438 C43.7109375,75.171379 43.999504,74.8828125 44.3554688,74.8828125 Z" id="矩形" fill="#FFFFFF" fill-rule="nonzero" transform="translate(52.441406, 75.527344) rotate(90.000000) translate(-52.441406, -75.527344) "></path>
                        <path d="M51.1523438,74.8828125 L67.3242188,74.8828125 C67.6801835,74.8828125 67.96875,75.171379 67.96875,75.5273438 C67.96875,75.8833085 67.6801835,76.171875 67.3242188,76.171875 L51.1523438,76.171875 C50.796379,76.171875 50.5078125,75.8833085 50.5078125,75.5273438 C50.5078125,75.171379 50.796379,74.8828125 51.1523438,74.8828125 Z" id="矩形" fill="#FFFFFF" fill-rule="nonzero" transform="translate(59.238281, 75.527344) rotate(90.000000) translate(-59.238281, -75.527344) "></path>
                        <path d="M57.4804688,75.234375 L74.3554688,75.234375 C74.5172709,75.234375 74.6484375,75.3655416 74.6484375,75.5273438 C74.6484375,75.6891459 74.5172709,75.8203125 74.3554688,75.8203125 L57.4804688,75.8203125 C57.3186666,75.8203125 57.1875,75.6891459 57.1875,75.5273438 C57.1875,75.3655416 57.3186666,75.234375 57.4804688,75.234375 Z" id="矩形" fill="#FFFFFF" fill-rule="nonzero" transform="translate(65.917969, 75.527344) rotate(90.000000) translate(-65.917969, -75.527344) "></path>
                        <path d="M38.8364717,21.4443191 C38.5562835,21.23803 38.3085554,20.9910811 38.1015,20.711659 C37.8237155,20.3430177 37.6385258,19.7386309 37.5227822,19.0729965 C36.9799449,19.0071265 36.5586384,18.4778547 36.5586384,17.834177 C36.5586384,17.2817929 36.8688311,16.8137687 37.2993972,16.6508269 C37.2831931,16.034884 37.2993972,15.6107732 37.2993972,15.6107732 C37.3063841,14.5532855 37.8362085,13.5675368 38.7149409,12.9771259 C38.7149409,12.9771259 39.6281576,11.9532508 42.4627175,11.9532508 L42.4627175,12.8141842 C43.4836356,13.3763415 44.1216186,14.444453 44.1317396,15.6084619 C44.1317396,15.6084619 44.1456288,16.0568407 44.1317396,16.6970515 C44.5375658,16.9301801 44.7824904,17.3668895 44.7694866,17.834177 C44.7694866,18.4339413 44.4025795,18.9354783 43.9141417,19.0533511 C43.792611,19.7270748 43.6074213,20.3395509 43.3273219,20.711659 C43.0962088,21.0278129 42.81189,21.3015184 42.4870236,21.5205897 L42.4870236,22.8483917 C43.2586938,23.1194387 44.014529,23.433489 44.7509677,23.7890625 C47.7551317,21.9603351 49.1738228,18.3593425 48.2225971,14.9771992 C47.2713713,11.5950559 44.182555,9.2578125 40.6640625,9.2578125 C37.14557,9.2578125 34.0567537,11.5950559 33.1055279,14.9771992 C32.1543022,18.3593425 33.5729933,21.9603351 36.5771573,23.7890625 C37.313596,23.433489 38.0694312,23.1194387 38.8411014,22.8483917 L38.8364717,21.4443191 Z" id="路径" fill="#FFFFFF" fill-rule="nonzero" opacity="0.539999962"></path>
                        <path d="M44.7467186,23.8140919 C44.0112169,23.4576583 43.2563433,23.1428484 42.4856548,22.8711456 L42.4856548,21.5401318 C42.8101079,21.3205305 43.094065,21.046163 43.324884,20.7292443 C43.6046271,20.3562361 43.7872693,19.7422784 43.9109573,19.066925 C44.3987737,18.9510839 44.765214,18.4460169 44.765214,17.8448017 C44.776999,17.3794052 44.5345781,16.9446107 44.1329022,16.7107177 C44.1513976,16.0689581 44.1329022,15.6194948 44.1329022,15.6194948 C44.1222279,14.4503725 43.4820819,13.37825 42.4590677,12.816141 L42.4590677,11.953125 C39.6281141,11.953125 38.7160592,12.9794769 38.7160592,12.9794769 C37.8384448,13.5713159 37.3092945,14.5594492 37.3023164,15.6194948 C37.3023164,15.6194948 37.2884448,16.0469483 37.3023164,16.6620644 C36.8722981,16.8254003 36.5625,17.2945566 36.5625,17.8482769 C36.5625,18.4935117 36.9832706,19.0240638 37.5254172,19.0900932 C37.6467934,19.7573377 37.8305915,20.3643449 38.1033988,20.7327195 C38.3101908,21.0128175 38.5576036,21.2603638 38.8374354,21.4671519 L38.8374354,22.8699872 C38.0667469,23.14169 37.3118733,23.4564999 36.5763716,23.8129335 C39.083162,25.3436055 42.2329924,25.3436055 44.7397829,23.8129335 L44.7467186,23.8140919 Z" id="路径" fill="#FFFFFF" fill-rule="nonzero"></path>
                    </g>
                </g>
            </g>
            <g id="编组" opacity="0.100000001" mask="url(#mask-2)" fill="#FFFFFF" fill-rule="nonzero">
                <g transform="translate(139.000000, 10.500000) rotate(-90.000000) translate(-139.000000, -10.500000) translate(40.000000, -157.000000)" id="路径">
                    <path d="M70.5,0.5 C70.5,0.5 70.5,18.4057426 70.5,31.1295583 C70.5,38.821286 74.5873044,45.9136582 81.2037696,49.7720086 C101.753201,61.6841972 144.70377,86.594906 144.70377,86.594906 L70.5,129.636116 C70.5,129.636116 70.5,129.636116 70.5,129.648602 C70.5,138.526554 75.2195946,146.717745 82.8748222,151.175451 C90.5300498,155.608183 99.969239,155.608183 107.624467,151.175451 C131.967639,137.040652 163.514403,118.747826 186.79623,105.249843 C193.435277,101.403979 197.5,94.2991203 197.5,86.6073926 C197.5,78.915665 193.412696,71.8108062 186.79623,67.9649423 C143.123044,42.6296901 70.5,0.5 70.5,0.5 Z"></path>
                    <path d="M197.5,51.5 C197.5,51.5 197.5,72.9474072 197.5,88.1729724 C197.5,97.3860846 192.593298,105.896248 184.650406,110.502804 C151.170978,129.871279 63.8804871,180.393832 63.8804871,180.393832 L197.5,257.733123 L197.5,257.733123 C197.5,268.367088 191.86136,278.193411 182.67146,283.517872 C173.48156,288.827376 162.150062,288.827376 152.960162,283.517872 C112.107128,259.871881 52.2236824,225.218016 13.3495941,202.723664 C5.40670153,198.117108 0.5,189.606944 0.5,180.393832 C0.5,171.18072 5.40670153,162.685513 13.3495941,158.078957 C77.1096051,121.181639 197.5,51.5 197.5,51.5 Z" transform="translate(99.000000, 169.500000) rotate(-180.000000) translate(-99.000000, -169.500000) "></path>
                    <path d="M167.960914,203.491011 C173.746215,200.169663 180.879714,200.169663 186.665015,203.491011 C192.450317,206.821714 196,212.968546 196,219.620597 L196,219.620597 L111.882742,268 L196,316.379403 L196,316.379403 C196,323.031454 192.450317,329.178286 186.665015,332.508989 C180.879714,335.830337 173.746215,335.830337 167.960914,332.508989 C142.242775,317.717298 104.544454,296.039658 80.0891825,281.968371 C75.0889072,279.086752 72,273.76324 72,268 C72,262.23676 75.0889072,256.922604 80.0891825,254.040984 C104.544454,239.969698 142.242775,218.292058 167.960914,203.491011 Z"></path>
                </g>
            </g>
        </g>
    </g>
</svg>